<?xml version="1.0" standalone="no"?>
<!DOCTYPE svg PUBLIC "-//W3C//DTD SVG 20010904//EN"
 "http://www.w3.org/TR/2001/REC-SVG-20010904/DTD/svg10.dtd">
<svg version="1.0" xmlns="http://www.w3.org/2000/svg"
 width="600.000000pt" height="600.000000pt" viewBox="0 0 600.000000 600.000000"
 preserveAspectRatio="xMidYMid meet">
<g transform="translate(0.000000,600.000000) scale(0.100000,-0.100000)"
fill="#000000" stroke="none">
<path d="M4399 5206 c-2 -2 -42 -6 -88 -9 -64 -3 -86 -8 -93 -21 -5 -9 -16
-16 -24 -16 -8 0 -13 4 -10 9 3 4 -7 6 -22 3 -24 -5 -24 -6 -7 -13 16 -6 14
-8 -11 -8 -17 -1 -36 -7 -42 -14 -6 -7 -22 -13 -37 -15 -14 -1 -35 -8 -48 -16
-12 -7 -39 -19 -59 -26 -21 -6 -38 -15 -38 -19 0 -11 -50 -32 -60 -26 -5 3
-11 1 -15 -5 -4 -6 -11 -7 -17 -4 -6 4 -8 2 -5 -3 9 -15 -34 -24 -50 -11 -16
13 -17 -4 -1 -20 7 -7 10 -12 7 -13 -40 -6 -54 -13 -70 -32 -10 -12 -18 -16
-19 -9 0 6 5 12 12 12 6 0 9 3 5 6 -7 7 -39 -10 -37 -20 0 -4 -15 -18 -35 -32
-20 -13 -33 -19 -29 -12 4 7 -5 2 -19 -11 -21 -19 -29 -22 -41 -12 -11 9 -16
9 -22 0 -4 -7 -3 -9 3 -6 6 4 13 0 17 -8 3 -10 -3 -17 -22 -21 -15 -4 -37 -18
-50 -31 -12 -14 -30 -26 -40 -28 -9 -1 -16 -8 -14 -15 1 -6 -2 -9 -8 -5 -6 3
-8 10 -5 15 7 11 -66 56 -84 52 -7 -2 -10 1 -6 8 5 7 0 11 -11 10 -42 -5 -65
0 -58 12 5 8 0 9 -14 6 -12 -4 -22 -2 -22 3 0 4 -7 6 -15 3 -8 -3 -20 -2 -27
2 -36 23 -516 24 -502 2 4 -7 -6 -8 -60 -9 -21 -1 -25 -3 -15 -10 9 -7 5 -8
-13 -3 -18 4 -28 2 -28 -5 0 -6 -13 -11 -29 -11 -17 0 -46 -10 -66 -21 -20
-12 -39 -19 -42 -15 -3 3 -12 -2 -20 -12 -8 -9 -12 -12 -9 -6 10 20 -48 2 -72
-22 -13 -12 -37 -26 -53 -29 -16 -4 -31 -11 -34 -16 -12 -18 -44 -30 -51 -17
-5 7 -3 8 7 3 12 -8 12 -6 0 8 -17 22 -21 21 -16 -3 2 -11 -3 -25 -10 -32 -34
-31 -45 -38 -45 -31 0 4 -6 0 -12 -9 -7 -9 -24 -19 -38 -23 -17 -4 -21 -3 -12
3 11 8 11 10 -1 15 -16 6 -17 -9 -4 -30 5 -9 2 -13 -8 -13 -9 0 -13 -4 -10
-10 3 -5 0 -7 -8 -4 -8 3 -18 0 -22 -5 -3 -6 -10 -9 -14 -6 -5 2 -17 -5 -27
-18 l-19 -22 23 19 c12 11 22 15 22 9 0 -13 -33 -43 -47 -43 -6 0 -17 -8 -24
-17 -12 -14 -12 -16 0 -8 10 5 12 4 7 -3 -4 -7 -13 -12 -20 -12 -6 0 -27 -16
-46 -35 -18 -19 -38 -31 -44 -28 -6 4 -5 0 2 -9 11 -14 10 -19 -9 -32 -12 -8
-26 -13 -31 -10 -5 3 -8 2 -7 -3 3 -20 -2 -34 -11 -28 -6 4 -7 -1 -3 -11 4
-12 3 -15 -5 -10 -8 5 -10 1 -5 -11 5 -15 3 -16 -8 -5 -7 6 -18 12 -23 12 -6
0 -5 -4 3 -9 12 -7 12 -13 3 -24 -7 -7 -8 -18 -4 -23 4 -4 -2 -2 -12 6 -13 10
-17 11 -12 2 8 -13 -25 -74 -54 -102 -12 -11 -12 -12 -1 -5 19 12 10 -5 -29
-55 -15 -19 -25 -41 -23 -47 3 -7 0 -13 -6 -13 -6 0 -11 -4 -11 -10 0 -5 -9
-19 -20 -30 -11 -11 -20 -26 -20 -32 1 -7 7 -2 16 12 l15 25 -7 -25 c-4 -14
-12 -28 -18 -32 -6 -4 -7 -8 -2 -8 5 0 4 -6 -2 -12 -16 -20 -51 -131 -44 -143
3 -5 -2 -4 -11 4 -15 12 -17 12 -11 -4 5 -13 4 -16 -4 -11 -8 5 -10 2 -5 -9 5
-14 8 -14 15 -3 7 9 8 8 4 -5 -3 -10 -6 -21 -6 -23 0 -3 -3 -3 -8 -1 -4 3 -8
-7 -9 -21 -1 -15 -6 -56 -13 -92 -6 -36 -14 -92 -16 -125 -3 -33 -10 -61 -15
-63 -5 -2 -9 -8 -9 -13 0 -6 3 -8 8 -6 4 3 8 -52 9 -121 1 -83 9 -165 23 -237
12 -60 22 -120 23 -132 1 -11 5 -20 8 -18 3 2 11 -12 18 -31 12 -34 37 -49 27
-16 -124 414 -92 817 95 1182 274 535 817 864 1379 837 128 -7 211 -21 338
-59 98 -29 80 -47 -19 -19 -207 56 -466 59 -694 6 -444 -103 -838 -451 -1023
-901 -122 -298 -146 -643 -68 -968 10 -40 11 -67 5 -84 -8 -20 -7 -23 6 -18
10 3 13 2 10 -5 -4 -6 -13 -8 -21 -5 -8 3 -11 0 -7 -10 3 -7 2 -22 -3 -31 -4
-10 -8 -21 -9 -25 -2 -5 -4 -9 -5 -10 -6 -7 -7 -74 -1 -78 13 -10 41 -82 36
-91 -4 -5 5 -14 19 -20 14 -7 24 -15 23 -18 -2 -3 13 -22 33 -41 19 -20 29
-27 21 -18 -24 31 -7 19 29 -19 19 -20 29 -33 21 -28 -10 5 -12 4 -7 -4 4 -6
11 -9 16 -6 5 3 30 -6 55 -20 26 -13 51 -22 56 -19 10 6 7 -25 -4 -44 -5 -7
-13 -9 -19 -6 -7 5 -8 2 -3 -6 6 -10 2 -12 -15 -7 -17 4 -20 3 -11 -6 15 -15
14 -20 -7 -44 -12 -14 -28 -19 -54 -18 -22 2 -35 -2 -32 -7 4 -6 -6 -9 -22 -7
-16 1 -49 -4 -74 -11 -25 -8 -52 -15 -60 -16 -8 0 -23 -2 -32 -3 -10 0 -17 -4
-17 -8 3 -20 -2 -34 -11 -28 -6 4 -7 -1 -3 -12 6 -15 5 -16 -9 -5 -14 11 -16
10 -11 -6 7 -29 -11 -35 -33 -11 -11 12 -18 24 -17 27 2 4 -5 7 -15 7 -9 0
-17 6 -16 13 1 6 2 21 3 32 0 12 11 31 24 44 13 13 22 27 20 33 -2 5 12 26 32
46 19 20 35 40 35 44 0 4 -5 1 -10 -7 -5 -8 -10 -10 -10 -5 0 14 73 95 85 95
6 0 3 -5 -5 -11 -13 -9 -13 -10 0 -6 8 2 14 12 12 22 -2 10 2 22 10 26 9 6 10
9 1 9 -7 0 -10 7 -6 17 4 11 3 14 -5 9 -8 -5 -10 -2 -6 8 4 10 1 16 -7 16 -7
0 -9 3 -6 7 4 3 -6 14 -23 24 -31 19 -112 24 -141 8 -9 -4 -29 -10 -44 -13
-16 -3 -31 -9 -34 -14 -3 -5 -16 -8 -28 -7 -13 1 -19 -3 -16 -11 6 -16 -45
-42 -71 -36 -10 2 -16 0 -12 -6 7 -12 -22 -25 -36 -15 -7 4 -8 1 -3 -7 11 -17
-16 -32 -33 -18 -10 9 -12 8 -10 -2 4 -16 -61 -62 -75 -53 -6 3 -7 1 -3 -5 3
-6 -2 -16 -13 -21 -26 -14 -34 -14 -25 2 4 6 4 9 -1 5 -4 -4 -15 -3 -25 2 -12
6 -17 5 -17 -5 0 -7 6 -11 12 -9 7 3 18 -3 26 -12 10 -13 11 -16 1 -10 -8 5
-18 1 -27 -10 -7 -11 -19 -19 -27 -19 -7 -1 -12 -6 -11 -13 4 -15 -2 -15 -30
-1 -21 10 -21 10 -3 -5 18 -14 15 -21 -6 -17 -4 0 -17 -13 -30 -29 -21 -29
-68 -45 -52 -17 5 8 2 7 -9 -2 -10 -8 -28 -15 -41 -16 -13 -2 -34 -6 -46 -10
-15 -5 -20 -4 -16 4 4 6 2 11 -3 11 -6 0 -11 -5 -11 -11 0 -6 -7 -8 -17 -5 -9
4 -19 2 -23 -4 -3 -5 -19 -12 -36 -14 -44 -5 -74 -17 -74 -28 0 -6 -7 -8 -15
-4 -9 3 -15 0 -15 -7 0 -7 -14 -23 -30 -36 -17 -12 -28 -27 -24 -33 5 -8 1 -9
-10 -5 -11 4 -15 3 -10 -4 3 -6 7 -24 8 -41 1 -16 10 -34 19 -39 9 -5 22 -16
30 -23 11 -11 16 -11 32 0 10 8 15 14 9 14 -5 0 -1 5 9 11 25 14 50 -6 27 -21
-8 -5 -11 -10 -6 -10 5 0 3 -7 -4 -15 -7 -8 -20 -15 -29 -15 -14 0 -14 2 -1
10 8 5 10 10 4 10 -19 0 -24 -13 -11 -28 9 -13 9 -14 0 -8 -9 5 -13 1 -13 -13
0 -11 -4 -23 -10 -26 -6 -3 -7 2 -4 12 3 10 -3 2 -14 -17 -10 -19 -23 -34 -29
-33 -6 1 -10 -5 -9 -15 0 -9 -5 -16 -12 -14 -8 1 -11 -1 -8 -6 6 -10 -15 -62
-26 -62 -4 0 -10 -20 -13 -44 -6 -36 -3 -52 16 -86 14 -25 28 -39 37 -35 7 2
11 1 8 -4 -5 -7 6 -13 44 -25 3 -1 10 -4 15 -7 19 -10 48 -4 59 14 8 12 8 20
0 25 -22 14 -24 41 -3 47 10 4 17 10 15 14 -3 4 6 20 20 37 14 16 22 22 18 14
-5 -11 -4 -12 5 -4 7 6 14 19 15 28 1 10 19 32 39 50 20 18 34 35 31 38 -3 3
7 15 22 27 15 11 24 21 20 21 -4 0 9 16 30 35 20 19 41 35 45 35 5 0 8 4 6 9
-1 4 9 18 23 30 14 13 18 19 10 15 -9 -4 -7 2 5 13 11 11 23 19 28 16 4 -2 7
1 7 7 0 6 5 8 12 4 7 -5 9 -2 5 9 -4 11 -2 14 8 10 8 -3 12 -10 8 -16 -3 -6
-1 -7 6 -3 9 6 9 11 0 22 -6 8 -9 17 -5 21 3 3 6 1 6 -5 0 -12 31 -4 41 10 3
5 42 8 87 6 l81 -3 -13 -30 c-15 -35 -34 -103 -45 -160 -4 -23 -11 -46 -15
-53 -4 -7 -2 -12 4 -12 7 0 9 -7 6 -15 -8 -22 14 -116 25 -109 8 5 13 -9 10
-28 0 -5 2 -7 7 -6 4 1 25 -1 46 -6 29 -6 36 -10 25 -17 -8 -5 -9 -9 -2 -9 6
0 18 6 25 13 7 6 22 12 33 12 11 0 19 6 18 12 -2 10 3 10 23 1 28 -13 126 2
178 28 20 9 33 11 41 4 12 -10 25 -4 25 13 0 5 -8 6 -18 3 -10 -4 -7 1 8 13
13 11 29 17 34 14 5 -3 6 -1 3 4 -4 6 3 19 16 29 19 17 20 17 8 1 -11 -14 -11
-21 -3 -29 15 -15 15 -31 0 -22 -7 4 -8 3 -4 -5 4 -6 11 -9 15 -7 4 3 18 -8
30 -24 18 -25 28 -30 66 -30 37 0 48 5 61 25 14 21 19 23 32 13 13 -11 14 -11
7 2 -5 8 -11 23 -12 33 -3 15 4 13 34 -12 43 -36 86 -40 157 -16 24 8 52 12
63 9 14 -4 15 -4 4 4 -17 12 -6 32 17 32 15 0 15 -2 2 -11 -13 -9 -13 -10 0
-6 8 2 14 10 12 16 -1 6 5 14 13 17 8 3 12 11 9 18 -3 6 1 3 9 -7 13 -15 15
-16 21 -2 3 8 1 15 -5 15 -6 0 -7 5 -4 10 12 20 24 -1 18 -31 -4 -23 0 -36 17
-54 26 -28 65 -33 74 -9 3 8 11 12 17 8 8 -4 9 -3 5 4 -8 13 42 65 55 57 4 -3
11 0 15 6 5 8 3 9 -7 4 -8 -5 -1 5 15 22 17 18 33 30 38 27 4 -3 8 0 8 6 0 7
7 9 16 6 14 -5 15 -4 4 9 -11 13 -10 14 5 9 13 -5 16 -4 10 5 -5 9 -2 12 11 9
11 -2 18 -11 16 -18 -3 -11 1 -10 16 3 10 9 22 14 27 10 4 -5 5 -3 1 4 -3 6
-2 15 4 18 8 5 8 11 0 20 -11 13 0 27 23 31 4 1 8 2 10 4 1 1 9 3 18 5 12 2
15 -3 12 -16 -3 -10 -9 -19 -14 -19 -5 0 -6 8 -2 18 3 9 3 14 -1 10 -4 -3 -9
-48 -11 -100 -3 -75 -7 -93 -19 -92 -9 1 -12 -4 -9 -13 4 -10 9 -11 16 -4 16
16 27 13 20 -6 -4 -10 -2 -14 5 -9 6 3 15 -1 20 -10 7 -12 25 -17 65 -19 31
-2 55 1 52 5 -9 14 39 20 55 6 8 -7 22 -12 30 -11 8 1 21 3 28 3 7 1 11 6 8
10 -7 12 71 95 83 87 6 -3 11 -1 11 5 0 21 54 59 78 55 19 -3 21 -1 12 10 -6
8 -9 19 -5 26 6 8 10 7 17 -2 8 -11 9 -10 4 3 -5 17 7 31 31 34 6 1 29 14 50
29 21 15 27 18 14 6 -14 -13 -18 -21 -10 -21 9 0 10 -3 4 -8 -5 -4 -11 -20
-12 -37 -2 -30 -10 -94 -16 -130 -2 -11 2 -29 9 -40 17 -26 95 -50 121 -37 10
5 28 8 41 7 13 -1 25 2 28 7 3 4 9 6 13 4 4 -3 8 1 8 9 0 12 -4 12 -20 -2 -19
-18 -19 -17 -6 4 13 22 49 38 49 23 0 -5 21 -7 48 -5 26 2 38 1 28 -2 -15 -4
-16 -7 -5 -15 11 -7 9 -9 -7 -5 -18 4 -21 0 -18 -24 2 -15 -1 -31 -6 -34 -6
-4 -8 -11 -4 -16 3 -5 0 -16 -6 -24 -7 -8 -9 -15 -5 -15 3 0 -4 -17 -16 -37
-13 -20 -17 -33 -11 -29 11 7 17 -6 13 -28 -1 -4 5 -19 14 -32 14 -22 21 -24
77 -20 58 4 77 14 78 43 0 15 -40 44 -52 37 -9 -6 -11 8 -2 30 3 9 11 13 17 9
5 -3 7 -1 4 5 -12 18 4 40 27 38 13 -2 23 3 23 10 0 6 -6 10 -14 7 -7 -3 -13
2 -13 12 0 9 5 13 10 10 6 -3 10 -1 10 5 0 5 16 33 35 60 19 27 35 55 35 62 0
6 3 9 6 5 8 -7 44 25 38 34 -2 4 11 24 31 43 19 19 35 40 35 46 0 5 9 15 19
22 10 6 17 17 14 24 -3 8 3 11 14 10 10 -2 18 -8 18 -14 0 -6 4 -14 9 -19 5
-5 6 -3 2 5 -4 7 -2 12 6 12 8 0 9 3 3 8 -13 9 -20 46 -7 38 5 -3 8 10 7 29
-1 19 2 32 6 29 4 -2 7 5 6 16 -1 11 -5 20 -10 20 -4 0 -6 4 -3 9 3 5 -10 12
-29 15 -34 7 -85 -14 -85 -35 0 -5 -5 -9 -11 -9 -5 0 -7 6 -3 13 4 7 3 9 -2 4
-5 -5 -9 -12 -9 -15 0 -15 -47 -82 -55 -77 -11 7 -31 -20 -22 -30 4 -5 -1 -5
-11 -2 -10 4 -16 3 -13 -2 8 -12 -25 -39 -62 -52 -18 -6 -30 -14 -28 -18 3 -4
-4 -12 -14 -19 -17 -10 -17 -8 2 28 12 22 25 37 30 34 4 -3 5 3 1 12 -5 13 -3
15 7 9 8 -5 11 -3 8 6 -6 16 50 61 65 52 6 -3 7 -1 3 6 -4 6 -13 8 -19 4 -7
-4 -4 6 7 21 11 17 13 25 5 20 -11 -6 -12 -5 -2 7 10 13 10 19 -1 35 -11 15
-12 22 -3 34 10 13 10 13 -4 2 -13 -10 -19 -9 -30 5 -12 15 -12 16 3 10 10 -3
20 -3 22 2 3 4 -10 7 -30 6 -23 -1 -39 -8 -50 -23 -8 -12 -22 -22 -31 -22 -9
0 -13 -3 -10 -7 9 -9 -13 -34 -24 -27 -5 3 -9 2 -8 -3 3 -19 -2 -31 -25 -58
-14 -16 -23 -32 -20 -37 3 -4 1 -8 -4 -8 -5 0 -14 -12 -20 -26 -8 -16 -17 -22
-25 -18 -8 5 -7 2 2 -10 11 -13 11 -20 3 -28 -7 -7 -12 -19 -12 -28 0 -8 -7
-28 -15 -43 -8 -15 -9 -25 -3 -21 7 4 8 3 4 -4 -8 -14 -46 -16 -46 -3 0 4 5
23 11 40 9 24 14 29 20 19 6 -9 9 -9 9 -1 0 6 -4 14 -9 17 -5 4 4 34 21 67 25
50 28 63 17 70 -10 6 -11 9 -1 9 6 0 12 9 12 20 0 11 -5 20 -11 20 -8 0 -7 5
1 15 11 13 10 14 -2 10 -8 -3 -21 1 -28 10 -7 8 -20 15 -29 15 -14 0 -14 2 -1
11 12 8 10 9 -8 4 -12 -4 -32 -8 -45 -9 -29 -4 -77 -27 -73 -35 2 -3 -6 -6
-19 -6 -15 0 -21 5 -17 14 3 9 1 12 -5 8 -6 -4 -14 0 -17 9 -9 24 -7 27 9 14
9 -7 17 -11 19 -9 2 2 -8 13 -22 23 -14 11 -22 14 -18 8 4 -7 2 -12 -4 -12 -6
0 -8 -6 -5 -12 4 -7 0 -5 -8 4 -8 11 -22 15 -38 12 -24 -5 -24 -4 -1 5 29 13
28 17 -5 15 -17 -1 -27 -7 -25 -14 3 -13 -48 -61 -58 -55 -3 2 -12 -1 -20 -6
-11 -7 -7 -8 13 -5 15 3 25 1 22 -5 -4 -5 -11 -9 -17 -9 -6 0 -17 -8 -25 -17
-9 -11 -12 -12 -7 -3 4 9 3 12 -2 7 -5 -5 -10 -13 -10 -18 -1 -5 -2 -14 -3
-20 0 -5 -6 -7 -13 -3 -6 4 -8 3 -4 -4 3 -6 2 -13 -4 -17 -5 -3 -10 -15 -10
-25 0 -10 -5 -22 -12 -26 -7 -5 -8 -2 -3 7 5 9 5 10 -2 4 -5 -5 -18 -30 -28
-55 -25 -59 -33 -70 -51 -63 -8 3 -14 0 -14 -6 0 -6 -4 -11 -9 -11 -5 0 -8 8
-6 18 2 9 4 22 4 27 1 6 5 4 9 -2 5 -8 8 2 8 23 0 36 27 70 45 58 5 -3 6 2 2
11 -5 13 -7 14 -14 3 -7 -10 -9 -10 -9 2 0 8 4 22 10 30 6 9 5 20 -3 29 -9 12
-9 13 1 7 6 -4 12 -2 12 4 0 19 -44 80 -63 86 -9 3 -15 9 -12 14 7 11 -63 -7
-96 -25 -14 -8 -30 -11 -34 -7 -5 4 -5 1 -1 -5 4 -7 3 -13 -3 -13 -5 0 -17 -7
-25 -16 -15 -14 -16 -13 -12 8 2 13 10 22 17 20 8 -2 10 0 6 5 -5 4 -16 8 -24
8 -9 0 -18 10 -20 23 -3 21 -2 22 13 8 22 -22 31 -20 11 2 -13 15 -14 21 -4
32 6 8 1 6 -12 -5 -18 -15 -25 -17 -28 -7 -4 10 -9 8 -20 -5 -8 -10 -11 -11
-7 -3 7 13 5 13 -16 0 -36 -23 -80 -41 -79 -32 1 4 1 9 -1 12 -1 3 -3 16 -6
29 -2 14 -13 31 -24 38 -11 8 -18 19 -15 24 6 9 -14 13 -50 11 -15 -2 -17 0
-6 7 11 7 8 9 -10 10 -13 0 -59 4 -101 7 -70 6 -78 8 -78 27 0 11 -8 29 -18
40 -9 11 -12 17 -5 14 7 -4 10 -1 9 9 -1 9 -35 29 -85 49 -161 66 -243 134
-294 243 l-29 63 20 60 c46 134 159 308 351 539 124 150 485 512 536 538 22
12 33 21 25 21 -8 0 -26 -6 -40 -14 -14 -8 -45 -14 -70 -15 -208 -1 -567 -135
-609 -226 -15 -33 -6 -30 29 10 37 42 139 95 255 134 96 32 314 76 343 70 9
-3 -17 -10 -58 -17 -194 -33 -379 -93 -473 -153 -53 -34 -90 -75 -80 -90 3 -6
0 -9 -8 -6 -27 8 -50 74 -50 143 0 121 57 196 205 266 139 66 357 118 570 135
83 7 91 9 141 48 223 172 304 239 299 248 -4 6 -10 6 -17 -1 -6 -6 -20 -11
-31 -10 -21 0 -21 0 -1 9 23 10 5 13 -20 4 -13 -5 -14 -9 -4 -15 9 -5 4 -13
-19 -26 -18 -10 -32 -22 -32 -27 0 -5 8 -2 18 5 15 13 16 12 3 -3 -7 -10 -17
-15 -22 -12 -5 3 -12 -2 -15 -11 -5 -13 -9 -13 -22 -3 -9 7 -13 8 -9 2 11 -18
-18 -47 -48 -48 -18 -1 -29 -8 -31 -19 -1 -9 2 -15 7 -11 5 3 7 9 5 13 -3 4 2
8 11 8 12 0 9 -7 -11 -24 -15 -12 -33 -23 -40 -23 -8 0 -16 -9 -19 -19 -7 -27
-69 -65 -79 -48 -6 9 -10 8 -18 -3 -5 -8 -10 -10 -10 -4 0 8 -14 9 -47 2 -27
-5 -75 -11 -108 -14 -33 -3 -69 -8 -80 -11 -22 -7 -33 -9 -83 -11 -19 -1 -31
-6 -27 -12 4 -7 -3 -7 -20 0 -17 7 -24 7 -20 0 3 -6 -1 -10 -10 -10 -9 0 -14
-4 -11 -8 2 -4 -4 -9 -15 -9 -17 -2 -18 1 -9 13 16 18 3 18 -15 0 -8 -7 -11
-17 -7 -21 4 -5 -1 -5 -10 -2 -9 3 -34 -2 -55 -13 -21 -10 -41 -16 -45 -13 -5
2 -8 -2 -8 -9 0 -9 -3 -9 -10 2 -5 8 -10 10 -10 4 0 -11 -64 -48 -83 -49 -5 0
-14 -8 -21 -17 -7 -10 -16 -15 -19 -11 -4 3 -7 1 -7 -5 0 -7 -5 -12 -11 -12
-5 0 -8 4 -5 8 3 5 -1 9 -9 9 -8 0 -15 -4 -15 -9 0 -5 -4 -7 -9 -4 -5 3 -15
-2 -22 -12 -13 -15 -12 -16 4 -3 14 11 17 11 17 0 0 -11 2 -11 10 1 8 13 11
13 22 1 7 -8 8 -11 2 -8 -16 9 -60 -41 -77 -88 -33 -86 -36 -154 -11 -215 13
-31 45 -70 58 -70 11 0 45 44 40 52 -3 4 7 13 23 19 15 6 38 20 50 31 13 12
31 22 42 23 11 1 25 6 33 12 18 14 98 44 98 37 0 -4 6 -1 14 5 7 6 21 9 30 5
9 -4 18 0 22 9 3 9 12 13 20 10 8 -3 38 4 67 15 47 18 87 25 87 15 0 -3 -5
-14 -11 -26 -12 -22 -12 -22 9 -3 12 10 19 24 15 30 -3 6 -2 8 2 3 5 -4 18 1
29 10 12 10 3 -2 -19 -25 -21 -23 -47 -42 -57 -42 -10 0 -18 -4 -18 -10 0 -21
-75 -86 -97 -84 -12 1 -20 -2 -17 -7 2 -4 12 -5 21 -2 14 5 14 3 -1 -20 -18
-26 -43 -42 -61 -38 -5 2 -7 -1 -3 -4 11 -11 -11 -47 -24 -39 -7 4 -6 10 3 16
11 8 11 9 -1 5 -8 -2 -15 -10 -16 -18 -1 -32 -24 -70 -41 -67 -12 2 -17 -3
-15 -14 3 -20 -14 -24 -22 -5 -4 8 -5 7 -4 -3 3 -30 -22 -72 -38 -66 -8 3 -13
2 -9 -3 3 -5 -11 -26 -31 -46 -19 -20 -33 -39 -30 -42 3 -3 -17 -27 -45 -53
-27 -26 -49 -54 -49 -64 0 -21 -9 -20 -27 2 -13 16 -13 15 -4 -4 7 -15 7 -25
-2 -34 -10 -10 -9 -11 3 -4 8 4 4 -6 -10 -23 -14 -17 -28 -29 -32 -26 -4 2 -5
-3 -2 -11 3 -9 1 -16 -6 -16 -6 0 -8 -5 -4 -12 6 -10 4 -10 -8 0 -10 8 -19 9
-22 3 -4 -5 -1 -13 4 -16 7 -5 5 -12 -7 -22 -10 -8 -12 -11 -4 -7 10 5 12 3 7
-5 -6 -9 -11 -9 -22 0 -9 7 -14 8 -14 1 0 -6 5 -14 10 -17 5 -3 10 -11 10 -16
0 -6 -4 -7 -10 -4 -5 3 -7 0 -4 -8 3 -8 1 -18 -4 -21 -9 -5 -16 9 -42 82 -5
15 -12 50 -15 77 -3 28 -9 79 -13 115 -19 170 5 427 52 559 9 24 13 47 10 52
-3 5 -1 9 5 9 5 0 11 -6 14 -12 2 -7 4 -1 3 14 0 14 -4 24 -8 22 -4 -3 -5 2
-2 10 3 9 10 14 14 11 5 -3 7 6 4 20 -2 14 0 25 5 25 5 0 12 14 16 30 4 17 10
28 14 26 4 -3 8 1 8 8 0 22 25 76 35 76 5 0 7 4 4 9 -4 5 6 24 21 42 16 18 21
30 13 25 -13 -7 -13 -6 0 6 8 8 21 20 29 28 12 13 13 13 6 0 -5 -8 -4 -11 0
-7 14 12 15 38 2 30 -7 -4 -6 1 2 10 7 9 18 14 24 10 5 -3 7 -1 4 4 -4 6 0 14
9 17 9 3 14 12 11 19 -5 15 27 59 37 50 3 -4 6 -1 6 5 0 24 2 27 22 50 12 12
28 22 35 22 8 0 12 4 9 9 -6 10 60 64 82 67 8 2 17 6 20 10 4 4 -1 4 -11 1
-11 -4 -16 -3 -12 3 3 6 12 10 20 10 8 0 25 15 39 33 14 18 37 39 50 47 14 7
23 17 20 21 -3 5 2 6 10 3 9 -3 16 -1 16 6 0 6 5 8 10 5 6 -4 9 -1 8 7 -2 8 6
13 18 12 14 0 20 4 17 12 -3 8 2 11 16 7 11 -3 18 -10 14 -16 -3 -5 -1 -7 5
-4 5 4 8 15 5 25 -3 14 4 22 26 32 17 7 31 16 31 21 0 5 11 7 25 5 14 -3 23
-1 21 3 -3 4 9 15 27 25 24 13 27 13 13 2 -31 -25 -11 -19 30 9 21 14 43 24
50 21 7 -3 15 2 18 10 3 9 11 12 16 9 6 -4 18 -1 27 7 12 9 15 9 9 1 -5 -9 -2
-11 8 -7 9 3 13 10 10 15 -3 5 2 6 10 3 9 -3 16 -1 16 5 0 6 8 10 18 9 9 -1
35 0 57 1 31 1 36 4 25 11 -11 8 -8 9 13 4 15 -3 27 -2 27 3 0 4 30 11 68 13
75 6 326 2 357 -4 11 -3 33 -5 48 -5 16 -1 26 -5 23 -9 -3 -5 9 -8 27 -7 34 2
91 -17 81 -27 -3 -4 4 -4 16 -1 38 10 20 -29 -25 -54 -41 -23 -86 -45 -95 -47
-14 -3 -44 -25 -35 -26 6 0 17 6 25 13 12 10 12 9 1 -5 -7 -10 -20 -18 -28
-18 -8 0 -11 -5 -7 -11 5 -8 1 -8 -14 0 -15 8 -23 8 -28 -1 -4 -7 -3 -8 4 -4
18 11 14 -10 -5 -25 -9 -8 -14 -9 -10 -2 5 8 1 8 -17 0 -14 -7 -21 -14 -16
-17 4 -3 -4 -14 -18 -24 -16 -12 -23 -14 -18 -5 4 8 -2 2 -14 -14 -12 -15 -27
-24 -32 -21 -7 4 -8 2 -4 -4 4 -7 3 -12 -3 -12 -5 0 -12 6 -14 13 -4 9 -6 9
-6 0 -1 -21 -42 -62 -56 -57 -7 3 -15 -3 -19 -12 -18 -47 22 -27 180 89 339
249 594 411 829 527 232 115 454 175 554 150 54 -13 113 -51 137 -88 21 -32
26 -82 9 -76 -27 11 -209 -249 -189 -269 3 -2 -2 -7 -11 -10 -8 -4 -15 -5 -15
-2 0 20 118 201 163 251 32 35 54 64 49 64 -28 0 -131 -141 -228 -311 -74
-130 -244 -465 -244 -480 0 -7 31 49 69 125 38 76 75 144 81 150 6 6 -40 -93
-102 -220 -62 -128 -114 -230 -116 -229 -2 2 13 38 32 80 40 87 41 89 24 79
-8 -5 -9 -2 -5 9 25 61 21 65 -8 8 -9 -18 -12 -30 -6 -27 19 12 13 -7 -44
-129 -58 -126 -63 -145 -42 -145 20 0 196 -59 242 -82 22 -10 33 -13 24 -6 -9
7 -31 42 -49 78 -18 36 -41 76 -50 90 -10 14 -18 35 -17 45 1 11 -3 19 -10 18
-16 -4 -38 36 -26 48 5 5 22 -13 40 -44 17 -28 49 -83 72 -121 23 -39 46 -84
53 -102 8 -22 24 -38 52 -51 70 -34 152 -108 170 -153 20 -50 20 -63 0 -106
-16 -33 -42 -49 -30 -19 11 29 -35 91 -99 134 -60 41 -200 96 -322 127 -59 14
-111 31 -115 37 -7 11 -9 8 -105 -228 -111 -270 -185 -508 -188 -605 -2 -30
-6 -93 -10 -140 -9 -100 2 -149 45 -208 35 -49 106 -93 154 -95 22 -1 36 -7
36 -15 0 -24 -99 -11 -175 23 -89 40 -137 82 -169 148 -32 65 -56 203 -56 316
0 180 64 503 144 725 20 55 34 101 32 103 -2 2 -66 7 -142 10 -211 9 -554 -27
-614 -64 -64 -40 -534 -538 -524 -555 4 -7 3 -8 -4 -4 -13 8 -169 -173 -341
-393 -120 -153 -192 -259 -222 -326 -10 -22 -19 -32 -19 -22 -1 76 346 526
699 906 227 245 394 407 431 419 92 31 240 45 493 48 141 2 264 7 272 12 22
12 -380 14 -515 2 -63 -6 -128 -10 -143 -10 -16 0 -26 -3 -23 -8 3 -5 -23 -14
-57 -20 -61 -11 -63 -13 -185 -134 -493 -490 -991 -1110 -992 -1235 0 -12 11
-35 25 -52 28 -33 135 -95 135 -79 0 13 -39 48 -54 48 -6 0 -24 14 -40 30 -27
29 -27 31 -12 55 9 14 14 30 11 36 -8 12 14 41 25 34 12 -7 21 10 25 46 3 17
20 50 39 74 20 23 32 46 28 50 -4 5 1 5 11 2 12 -5 16 -3 11 5 -4 6 1 17 11
25 11 7 16 13 12 13 -8 0 12 25 61 78 17 19 32 41 32 49 0 8 5 11 10 8 6 -4 9
-2 8 3 -3 10 41 68 99 129 17 18 29 33 27 33 -3 0 5 10 16 23 12 12 28 22 37
22 10 0 17 9 18 23 1 12 13 35 26 50 13 15 25 29 27 32 2 2 8 -2 13 -10 9 -13
10 -13 6 1 -3 9 9 32 29 55 18 21 34 42 34 47 0 4 5 7 10 7 13 0 110 99 110
112 0 5 5 6 10 3 6 -4 9 -1 8 6 -2 7 2 13 9 14 7 0 18 6 25 14 10 10 10 12 1
7 -7 -4 -13 -3 -13 1 0 10 42 38 53 35 5 -1 6 2 3 6 -3 5 17 33 44 62 41 43
52 51 64 41 13 -11 14 -8 10 14 -4 22 -2 26 10 22 9 -4 15 -1 13 6 -1 7 4 11
11 9 8 -1 11 1 9 5 -2 5 4 17 15 28 19 19 19 19 12 0 -7 -17 -6 -18 8 -5 9 8
12 17 7 18 -18 7 -8 23 26 43 21 13 32 26 28 32 -4 7 1 6 10 -2 10 -8 20 -11
24 -7 3 3 0 6 -8 7 -24 1 103 26 171 33 36 4 79 9 95 12 47 7 310 12 339 7 15
-3 23 -10 19 -17 -3 -6 0 -6 8 2 18 17 34 15 19 -3 -6 -8 -9 -19 -5 -25 4 -6
1 -9 -6 -8 -6 2 -14 -3 -17 -11 -3 -10 0 -11 9 -5 11 6 11 4 -1 -10 -8 -10
-15 -26 -15 -35 -3 -43 -6 -51 -15 -51 -7 0 -7 6 -1 18 6 11 6 24 1 32 -7 12
-9 11 -9 -5 0 -24 -7 -99 -21 -220 -14 -131 -16 -140 -24 -154 -5 -7 -10 -40
-12 -74 -2 -33 -7 -63 -11 -66 -8 -6 -10 -33 -13 -151 -2 -59 7 -166 17 -215
3 -16 7 -37 8 -45 1 -8 8 -28 14 -45 40 -98 68 -139 109 -156 13 -5 21 -13 17
-18 -3 -5 0 -13 6 -17 8 -5 10 -2 5 7 -6 10 -4 10 6 -1 7 -8 22 -17 33 -18 11
-2 22 -8 25 -12 3 -5 22 -11 42 -15 23 -4 35 -11 31 -18 -3 -6 -1 -7 5 -3 6 4
20 2 31 -3 21 -12 76 3 99 26 21 20 -2 53 -38 53 -38 0 -100 33 -118 62 -11
19 -12 19 -7 3 6 -20 6 -20 -13 0 -17 18 -18 22 -5 37 13 14 12 17 -5 22 -22
7 -60 46 -46 46 5 0 10 9 10 19 0 11 -4 17 -9 14 -5 -3 -6 9 -2 27 4 18 8 56
10 84 1 28 6 71 10 96 5 25 8 51 6 59 -1 7 2 10 8 7 5 -4 10 6 11 21 2 58 5
71 13 66 5 -3 6 4 2 17 -5 17 -4 21 6 15 9 -6 11 -3 6 10 -4 9 -2 23 4 31 7 9
7 18 0 33 -15 27 -14 38 2 20 6 -8 11 -13 10 -11 -5 12 37 107 46 104 9 -2 9
3 3 15 -10 18 2 57 26 82 7 7 11 18 9 24 -2 7 4 18 13 27 9 8 10 11 3 6 -19
-12 -16 4 6 38 15 22 17 34 10 48 -7 12 -6 24 1 36 9 15 10 14 5 -5 -5 -17 -2
-23 10 -23 9 0 13 5 10 10 -10 16 5 51 18 44 7 -4 9 -4 5 1 -4 4 -3 16 2 26 6
10 6 20 1 23 -5 3 -14 -8 -21 -24 -7 -17 -14 -29 -16 -27 -2 2 8 32 23 66 17
40 29 57 34 49 4 -7 3 -16 -4 -21 -8 -6 -7 -7 3 -4 8 2 14 11 14 20 -2 17 20
18 45 3 10 -6 12 -5 7 3 -8 13 33 6 65 -10 9 -5 19 -6 22 -3 3 3 20 -2 37 -11
23 -12 30 -13 24 -3 -6 9 -3 9 10 -2 23 -18 87 -41 98 -34 5 3 7 0 6 -8 -2 -7
3 -12 9 -11 30 6 50 -53 56 -159 1 -20 6 -34 11 -31 4 3 7 -15 5 -40 -2 -25
-1 -43 3 -41 4 3 7 -10 7 -28 0 -18 2 -69 4 -113 3 -51 1 -85 -7 -94 -9 -12
-8 -13 3 -7 11 7 12 1 6 -32 -3 -23 -8 -56 -10 -74 -2 -18 -7 -51 -10 -73 -4
-22 -7 -50 -7 -62 0 -13 -3 -21 -8 -18 -4 2 -7 -8 -7 -23 0 -43 -20 -124 -32
-131 -13 -9 -20 -124 -7 -131 4 -3 18 13 30 35 11 22 24 42 27 45 6 6 51 145
56 175 2 11 12 49 22 85 11 36 22 105 26 154 3 49 8 92 10 95 7 13 -16 267
-30 319 -8 31 -12 58 -10 61 3 2 5 -1 5 -7 0 -7 7 -12 16 -12 10 0 14 -5 10
-16 -3 -8 -2 -12 4 -9 6 3 10 -5 10 -19 0 -30 27 -48 51 -35 10 5 25 23 33 40
19 39 20 42 4 33 -10 -6 -10 -5 -1 8 7 8 11 17 8 19 -2 3 -5 21 -7 41 -1 20
-5 35 -9 32 -4 -2 -10 0 -14 6 -3 5 -1 10 6 10 7 0 9 3 5 8 -7 7 -11 8 -37 11
-5 0 -7 6 -3 13 4 7 3 8 -4 4 -7 -4 -12 -1 -12 8 0 8 -9 20 -20 26 -11 6 -18
15 -15 21 4 5 1 9 -5 9 -6 0 -8 5 -4 12 4 7 3 8 -5 4 -6 -4 -8 -12 -5 -18 3
-5 -12 2 -35 17 -22 15 -41 32 -41 38 0 6 -3 8 -6 4 -12 -12 -43 37 -34 53 10
19 1 35 -19 35 -7 0 -23 19 -36 42 -12 23 -25 40 -27 37 -3 -3 -8 2 -12 11 -3
9 -2 13 3 10 5 -3 12 -1 15 4 3 4 -4 8 -17 7 -12 0 -22 4 -22 9 -1 6 -7 20
-14 33 -7 13 -10 30 -7 38 3 8 2 13 -3 9 -5 -3 -16 -2 -25 1 -15 6 -15 8 1 21
10 8 12 12 6 8 -20 -10 -15 5 12 41 14 18 24 37 23 41 -1 4 14 38 32 76 24 46
39 66 49 62 11 -5 12 -3 1 10 -11 13 -11 18 0 28 10 10 11 9 5 -2 -5 -9 -4
-12 2 -8 5 3 9 16 8 29 -1 13 5 31 14 42 9 10 14 19 12 20 -2 0 -1 11 3 24 4
12 12 20 17 17 5 -3 6 2 2 11 -5 13 -3 15 7 9 9 -5 11 -4 6 4 -4 6 -12 8 -18
5 -6 -4 -9 -1 -6 7 3 8 11 14 18 14 7 0 15 7 17 15 4 13 3 13 -6 0 -17 -23
-12 2 5 30 8 14 13 17 10 8 -3 -10 0 -20 7 -24 7 -4 9 -4 5 1 -4 4 -3 17 3 28
8 15 8 18 -1 12 -8 -5 -11 -3 -9 4 3 7 7 11 10 9 3 -2 14 5 24 15 9 10 24 16
31 13 9 -3 11 0 7 11 -5 12 -3 14 7 8 9 -5 11 -4 6 4 -4 6 -12 9 -17 6 -16
-10 -10 6 12 33 l22 27 -7 -30 c-4 -21 -3 -25 3 -14 5 8 11 26 13 40 4 26 29
69 40 69 4 0 5 -8 2 -17 -5 -14 -4 -15 4 -4 5 8 9 24 7 37 -1 13 2 21 6 18 5
-3 9 0 9 6 0 11 68 80 79 80 10 0 11 62 2 74 -5 6 -7 19 -6 29 3 15 1 16 -11
6 -8 -7 -14 -8 -12 -3 4 12 -39 54 -47 46 -3 -4 -4 6 -1 22 4 23 3 26 -9 16
-8 -7 -12 -17 -8 -24 3 -6 -5 -1 -18 10 -21 18 -109 40 -120 30z m-2039 -440
c0 -2 -7 -6 -15 -10 -8 -3 -15 -1 -15 4 0 6 7 10 15 10 8 0 15 -2 15 -4z
m1960 -184 c0 -5 -7 -17 -15 -28 -14 -18 -14 -17 -4 9 12 27 19 34 19 19z
m-2294 -127 c-8 -8 -18 -15 -22 -15 -3 0 -1 7 6 15 7 8 17 15 22 15 5 0 3 -7
-6 -15z m2124 -410 c0 -6 8 -22 17 -35 24 -34 25 -51 5 -66 -14 -10 -21 -10
-39 2 -13 8 -34 15 -48 16 -15 2 -32 9 -38 17 -10 12 -9 14 6 8 10 -4 16 -3
12 2 -3 5 -1 12 5 16 6 4 8 10 5 15 -8 14 16 59 34 62 16 4 40 -18 41 -37z
m-114 -42 c-14 -26 -25 -45 -26 -41 0 12 43 98 48 94 2 -2 -8 -26 -22 -53z
m174 -80 c0 -10 -4 -14 -8 -8 -4 6 -11 13 -16 18 -5 4 -2 7 7 7 10 0 17 -8 17
-17z m100 13 c0 -3 -4 -8 -10 -11 -5 -3 -10 -1 -10 4 0 6 5 11 10 11 6 0 10
-2 10 -4z m-675 -93 c-40 -100 -86 -242 -91 -283 -4 -27 -10 -50 -14 -50 -13
0 10 103 52 228 23 67 46 122 51 122 5 0 6 -8 2 -17z m745 -203 c40 -141 54
-389 31 -545 -16 -104 -54 -253 -85 -337 -14 -36 -22 -68 -19 -72 4 -3 -1 -6
-9 -6 -13 0 -9 18 18 98 87 254 101 656 29 871 -19 55 -19 54 5 39 11 -7 25
-29 30 -48z m-566 -154 c-15 -37 -28 -65 -30 -63 -2 2 8 34 22 71 15 37 28 65
30 63 2 -2 -8 -34 -22 -71z m-30 -92 c3 -8 2 -12 -4 -9 -6 3 -10 10 -10 16 0
14 7 11 14 -7z m-33 -75 c-5 -13 -10 -19 -10 -12 -1 15 10 45 15 40 3 -2 0
-15 -5 -28z m-32 -108 c-7 -23 -14 -39 -16 -37 -3 2 1 23 8 45 7 23 14 39 16
37 3 -2 -1 -23 -8 -45z m-1976 -66 c-3 -9 -8 -14 -10 -11 -3 3 -2 9 2 15 9 16
15 13 8 -4z m1951 -19 c-3 -15 -8 -25 -11 -23 -2 3 -1 17 3 31 3 15 8 25 11
23 2 -3 1 -17 -3 -31z m-17 -58 c-3 -8 -6 -5 -6 6 -1 11 2 17 5 13 3 -3 4 -12
1 -19z m-10 -50 c-3 -7 -5 -2 -5 12 0 14 2 19 5 13 2 -7 2 -19 0 -25z m43
-320 c0 -6 -6 -5 -15 2 -8 7 -15 14 -15 16 0 2 7 1 15 -2 8 -4 15 -11 15 -16z
m-1837 -113 c-7 -21 -12 -19 -10 4 0 11 5 18 9 15 4 -3 5 -11 1 -19z m-409
-44 c16 -18 14 -22 -37 -91 -50 -65 -167 -260 -183 -302 -4 -12 -1 -18 7 -18
8 0 41 -12 74 -26 42 -19 79 -27 126 -28 102 -2 129 -40 67 -96 -28 -25 -29
-28 -9 -23 13 3 32 20 42 37 12 20 19 25 19 14 0 -9 -5 -20 -10 -23 -6 -3 -8
-17 -6 -31 3 -14 1 -22 -5 -19 -5 4 -6 11 -3 17 5 8 1 9 -12 4 -56 -23 -71
-12 -39 30 28 36 19 47 -34 42 -58 -6 -164 -71 -169 -103 -2 -18 7 -24 65 -39
85 -22 88 -22 146 -3 26 8 47 11 47 7 0 -4 -23 -13 -51 -20 l-50 -12 22 -24
c43 -46 7 -91 -104 -133 -127 -47 -257 0 -184 66 41 38 106 65 139 58 l30 -7
-43 -25 c-24 -13 -52 -32 -62 -41 -16 -15 -17 -15 -11 1 3 9 9 17 13 17 3 0
20 12 36 26 l30 25 -43 -23 c-72 -38 -78 -77 -9 -63 50 11 134 54 141 72 8 20
7 21 -27 27 -76 14 -138 38 -152 60 -28 43 11 98 101 141 l47 23 -44 8 c-53 9
-47 8 -83 23 -16 6 -30 10 -31 9 -7 -8 -56 -111 -80 -167 -35 -85 -57 -189
-44 -212 5 -10 28 -23 50 -29 29 -8 38 -15 31 -22 -16 -16 -78 -1 -109 27 -26
22 -28 28 -27 102 1 109 62 313 93 313 8 0 11 3 8 7 -4 3 -17 1 -30 -5 -12 -7
-74 -16 -137 -21 l-115 -8 -116 -121 c-136 -142 -262 -294 -283 -343 -14 -31
-15 -32 -16 -9 0 14 19 50 45 84 54 73 211 248 299 335 l65 65 73 7 73 8 -80
-4 -80 -3 -111 -113 c-145 -149 -215 -228 -264 -301 -49 -74 -50 -93 -7 -112
23 -11 27 -15 12 -15 -31 -1 -101 34 -119 60 -37 54 -13 114 98 246 85 102
208 223 227 223 7 0 10 2 8 4 -8 8 -177 -32 -224 -53 -25 -11 -45 -25 -45 -31
0 -7 3 -10 8 -8 63 33 127 58 158 62 33 5 31 3 -16 -12 -69 -23 -120 -50 -120
-62 0 -6 -10 -5 -25 2 -65 29 1 131 105 163 30 9 96 21 145 27 l90 11 105 77
c278 204 437 289 541 290 33 0 51 -5 63 -19z m3 -83 c-36 -45 -85 -122 -157
-246 -23 -41 -44 -71 -47 -68 -9 9 155 280 205 339 32 37 31 15 -1 -25z m423
-163 c22 -23 22 -25 6 -50 -23 -35 -30 -31 -11 8 l16 32 -30 -35 -30 -35 127
-6 c133 -7 172 -17 209 -51 25 -23 22 -42 -5 -29 -9 4 -26 12 -37 18 -12 5
-59 7 -113 4 -52 -3 -96 -3 -99 1 -2 5 -30 8 -61 8 l-57 0 -52 -82 c-122 -195
-179 -331 -153 -363 7 -8 21 -15 31 -15 19 0 35 -17 25 -27 -11 -11 -78 9 -98
29 -44 44 -1 205 102 382 36 61 37 66 17 61 -12 -2 -62 -12 -112 -21 -49 -9
-96 -21 -103 -27 -25 -20 -34 8 -12 36 24 31 84 50 205 67 l80 12 38 54 c44
63 77 71 117 29z m-542 -151 c5 3 9 -2 9 -10 0 -8 -5 -12 -11 -9 -6 3 -19 8
-28 11 -10 4 -18 13 -18 22 0 13 3 13 19 -2 11 -10 24 -15 29 -12z m525 -1
c-52 -4 -52 -4 -91 -66 -63 -100 -124 -216 -148 -281 -13 -34 -23 -53 -23 -44
-2 43 104 253 178 356 30 41 33 42 84 40 l52 -2 -52 -3z m-283 -34 c-47 -10
-94 -18 -105 -17 -27 0 134 36 165 36 14 0 -13 -8 -60 -19z m544 -5 c6 -17 5
-17 -29 -4 -17 7 -24 7 -20 0 4 -6 -13 -10 -44 -10 -28 0 -51 4 -51 9 0 6 -17
7 -37 4 -21 -3 -35 -3 -31 1 21 24 203 24 212 0z m-240 8 c11 -19 -15 -37 -59
-41 -5 -1 -3 -6 5 -11 12 -8 11 -10 -7 -10 -13 0 -23 -5 -23 -10 0 -6 -4 -16
-10 -23 -67 -84 -78 -84 -32 -2 16 28 33 49 39 48 7 -2 10 6 8 17 -2 12 0 18
5 15 6 -3 18 -1 27 5 17 11 17 11 0 6 -11 -3 -15 -2 -12 4 7 12 52 13 59 2z
m459 -50 c-5 -10 -3 -13 6 -8 24 15 -16 -48 -50 -79 -31 -29 -31 -28 6 18 21
26 36 50 33 53 -3 2 -16 -10 -30 -28 -65 -89 -99 -138 -94 -138 3 0 33 23 67
51 200 167 282 189 302 83 7 -37 -2 -82 -13 -64 -10 16 -63 -141 -58 -171 5
-34 20 -33 74 3 35 24 57 49 79 91 46 90 156 221 188 225 35 4 66 -39 46 -66
-30 -39 -62 -71 -69 -67 -4 2 -22 -16 -39 -40 -18 -25 -36 -45 -40 -45 -5 0
-16 -12 -26 -26 -9 -14 21 6 66 45 96 84 200 158 248 178 31 13 36 13 60 -5
22 -16 26 -27 27 -70 0 -28 -3 -49 -7 -47 -8 6 -22 -25 -14 -33 3 -3 5 1 5 8
0 7 2 11 5 8 10 -9 -7 -38 -18 -31 -6 4 -8 0 -4 -11 5 -11 3 -15 -5 -10 -7 5
-9 0 -6 -14 4 -14 2 -20 -5 -15 -6 4 -8 -2 -5 -15 4 -12 2 -20 -3 -16 -5 3 -9
-11 -9 -31 0 -46 20 -54 72 -29 37 18 40 23 43 66 3 54 45 138 111 221 38 48
51 58 73 55 17 -2 29 -11 35 -29 8 -22 3 -34 -34 -82 -23 -31 -46 -54 -51 -52
-4 3 -13 -3 -18 -14 -14 -26 -14 -34 1 -25 7 4 8 3 4 -5 -4 -6 -11 -9 -16 -6
-9 5 -40 -55 -40 -76 0 -39 138 51 258 168 88 85 108 100 124 92 34 -18 20
-52 -63 -154 -84 -103 -97 -119 -85 -97 10 18 1 15 -15 -5 -12 -14 -12 -16 0
-9 16 10 15 8 -57 -97 -46 -68 -52 -80 -40 -95 11 -15 11 -15 -3 -5 -9 7 -20
9 -24 5 -10 -9 1 11 37 68 26 39 26 41 4 15 -30 -35 -84 -131 -68 -121 8 5 10
1 6 -8 -3 -9 -10 -13 -15 -10 -5 3 -9 -11 -9 -30 0 -35 3 -38 44 -40 11 -1 21
-7 24 -15 3 -10 0 -12 -12 -8 -11 4 -15 3 -11 -4 9 -13 -64 -1 -82 14 -37 28
16 177 110 311 64 91 65 94 17 53 -24 -20 -66 -48 -94 -62 -27 -14 -44 -25
-38 -25 7 0 31 9 53 21 23 11 38 15 34 9 -17 -28 -119 -53 -127 -31 -5 16 -32
17 -33 1 0 -8 -8 -15 -17 -15 -9 0 -20 -4 -25 -9 -4 -5 -3 -6 5 -2 6 4 12 5
12 2 0 -3 -12 -12 -27 -20 -38 -19 -86 -15 -113 9 -20 18 -22 27 -17 80 3 33
15 90 27 127 33 103 21 111 -71 49 -82 -55 -232 -177 -238 -193 -2 -6 37 24
87 65 97 80 211 162 218 155 2 -3 -24 -23 -59 -46 -34 -23 -104 -76 -156 -119
-52 -43 -98 -78 -103 -78 -15 0 -37 -36 -31 -51 8 -20 -11 -17 -32 6 -10 11
-15 28 -12 40 6 24 -6 26 -24 3 -8 -9 -32 -24 -54 -34 -22 -10 -33 -19 -25
-19 8 0 32 9 53 20 46 25 49 17 5 -10 -42 -25 -69 -25 -102 1 -33 26 -35 81
-5 196 12 45 19 89 16 98 -6 14 -9 14 -37 0 -86 -44 -362 -276 -347 -291 3 -3
22 13 42 35 37 40 232 199 288 235 55 34 36 9 -26 -34 -92 -65 -206 -158 -259
-214 -47 -49 -48 -49 -68 -31 -11 10 -20 24 -20 30 0 24 72 155 125 230 30 41
49 75 42 75 -7 0 -49 -5 -94 -12 -78 -10 -96 -19 -73 -33 19 -12 10 -70 -20
-122 -33 -57 -94 -112 -161 -143 -34 -17 -37 -20 -14 -15 71 15 166 99 200
177 8 18 14 27 15 20 0 -24 -38 -87 -74 -121 -19 -19 -32 -39 -29 -44 3 -6 1
-7 -5 -3 -6 3 -25 -3 -44 -13 -18 -11 -54 -25 -79 -31 -39 -10 -52 -9 -78 4
-95 50 -75 172 48 291 60 58 64 61 118 70 35 5 44 4 49 -10 5 -11 14 -15 28
-11 12 3 71 10 133 16 61 5 124 17 139 25 25 13 30 13 45 -1 10 -9 15 -23 12
-32z m-736 6 c-2 -12 -9 -24 -15 -26 -7 -2 -9 -9 -5 -15 3 -7 2 -8 -3 -4 -5 5
-10 13 -10 18 -1 5 -2 14 -3 20 0 5 -5 8 -10 4 -5 -3 -12 -1 -16 4 -3 6 3 8
15 6 11 -2 22 0 25 6 11 17 25 9 22 -13z m-395 -21 c-26 -31 -97 -225 -116
-312 -2 -12 -4 -7 -5 12 -2 55 115 357 126 325 3 -7 0 -18 -5 -25z m51 -6 c-4
-16 -8 -17 -18 -8 -10 10 -10 13 4 19 9 4 17 7 18 7 0 1 -1 -8 -4 -18z m1658
-14 c-10 -9 -11 -8 -5 6 3 10 9 15 12 12 3 -3 0 -11 -7 -18z m-711 9 c0 -2 -9
-6 -20 -9 -11 -3 -18 -1 -14 4 5 9 34 13 34 5z m-970 -15 c0 -5 -7 -11 -14
-14 -10 -4 -13 -1 -9 9 6 15 23 19 23 5z m895 -1 c-16 -4 -39 -8 -50 -8 -16 0
-15 2 5 8 14 4 36 8 50 8 22 0 22 -1 -5 -8z m-686 -15 c-55 -20 -102 -45 -126
-68 -13 -11 -23 -16 -23 -9 0 23 127 92 170 91 8 0 -1 -6 -21 -14z m-934 -4
c3 -5 2 -12 -3 -15 -5 -3 -9 1 -9 9 0 17 3 19 12 6z m1623 -41 c-17 -27 -33
-50 -35 -50 -2 0 -1 5 3 12 4 7 7 28 7 48 -1 19 1 27 4 18 4 -16 6 -16 26 2
11 11 22 20 23 20 2 0 -11 -22 -28 -50z m-685 1 c-5 -19 20 -34 59 -36 9 0 20
-4 25 -9 4 -5 -1 -7 -14 -4 -12 3 -24 1 -26 -5 -2 -6 -20 -12 -40 -13 -21 -2
-35 1 -32 5 3 5 -5 7 -17 3 -15 -3 -19 -2 -14 7 6 8 1 10 -17 6 -14 -4 -28 -2
-31 4 -4 6 0 11 9 11 9 0 13 5 10 10 -3 6 2 10 12 10 10 0 29 9 43 19 28 22
40 19 33 -8z m267 -41 c-6 -11 -16 -20 -22 -20 -6 0 -3 9 7 20 10 11 20 20 22
20 2 0 -1 -9 -7 -20z m829 -59 c-12 -34 -23 -60 -25 -58 -2 2 6 32 17 66 12
34 23 60 25 58 2 -2 -6 -32 -17 -66z m-165 40 c3 -4 -3 -16 -13 -25 -17 -15
-19 -15 -32 1 -8 9 -9 14 -3 10 7 -4 14 0 18 8 6 17 22 20 30 6z m-1176 -36
c17 -20 25 -34 19 -33 -13 3 -28 -8 -78 -54 -16 -14 -29 -23 -29 -18 0 4 7 13
15 20 21 18 19 35 -2 19 -17 -13 -17 -13 0 7 9 11 17 31 17 43 0 16 5 21 14
18 10 -4 12 0 9 14 -7 27 -1 24 35 -16z m895 20 c-3 -9 -8 -14 -10 -11 -3 3
-2 9 2 15 9 16 15 13 8 -4z m-408 -12 c-12 -29 -14 -102 -4 -109 6 -4 6 -11
-1 -19 -7 -8 -9 -18 -6 -23 3 -6 -1 -15 -9 -22 -12 -10 -16 -9 -21 4 -3 9 -11
13 -18 9 -6 -3 -8 -3 -4 2 4 4 3 16 -2 25 -7 14 -5 19 11 23 16 4 19 2 13 -15
-5 -18 -4 -19 9 -7 17 16 4 41 -18 33 -10 -4 -12 0 -8 15 4 15 9 18 17 12 8
-7 12 -4 12 9 0 10 -4 16 -8 14 -4 -3 -5 2 -2 10 3 9 10 16 15 16 5 0 8 3 8 8
-3 18 2 32 12 32 7 0 8 -7 4 -17z m-182 -24 c-6 -6 -9 -19 -6 -28 7 -17 5 -16
-17 13 -10 13 -10 17 -2 12 6 -4 12 -2 12 3 0 6 5 11 12 11 9 0 9 -3 1 -11z
m1476 -143 c-3 -3 -11 5 -18 17 -13 21 -12 21 5 5 10 -10 16 -20 13 -22z m266
-254 c-3 -3 -11 0 -18 7 -9 10 -8 11 6 5 10 -3 15 -9 12 -12z"/>
<path d="M1321 2499 c-38 -15 -178 -116 -270 -193 -140 -119 -146 -125 -133
-126 8 0 52 34 99 76 93 83 279 224 294 224 19 0 -3 -21 -68 -64 -74 -50 -292
-227 -293 -238 0 -5 21 -8 48 -9 26 0 67 -4 92 -7 l45 -7 43 80 c46 85 143
234 168 260 17 17 10 18 -25 4z m-119 -162 c-6 -7 -10 -14 -11 -17 0 -21 -16
-40 -28 -36 -8 3 -11 1 -8 -4 3 -6 3 -15 -1 -21 -4 -7 -9 -8 -13 -1 -4 6 -10
6 -17 -2 -8 -9 -7 -16 4 -26 14 -13 15 -12 8 5 -5 15 -4 17 4 9 9 -9 9 -17 1
-33 -9 -17 -20 -20 -56 -19 -24 1 -46 7 -49 13 -6 17 17 42 36 39 9 -1 23 5
30 14 10 12 10 14 1 8 -7 -4 -13 -3 -13 2 0 10 61 56 75 57 6 1 9 5 8 11 -1 5
7 11 18 11 15 1 18 -1 11 -10z"/>
<path d="M1145 2310 c-2 -3 5 -6 15 -7 11 -1 22 2 24 5 3 4 -4 8 -15 8 -11 0
-22 -3 -24 -6z"/>
<path d="M826 2153 c-6 -14 -5 -15 5 -6 7 7 10 15 7 18 -3 3 -9 -2 -12 -12z"/>
<path d="M540 2120 c0 -5 5 -10 11 -10 5 0 7 5 4 10 -3 6 -8 10 -11 10 -2 0
-4 -4 -4 -10z"/>
<path d="M1013 2113 c9 -2 23 -2 30 0 6 3 -1 5 -18 5 -16 0 -22 -2 -12 -5z"/>
<path d="M1141 2083 c-1 -17 16 -25 25 -12 4 7 3 9 -4 5 -5 -3 -13 0 -15 6 -4
9 -6 10 -6 1z"/>
<path d="M735 2069 c-4 -6 -4 -13 -1 -16 3 -4 6 -1 6 6 0 7 5 9 12 5 7 -4 8
-3 4 4 -9 15 -13 15 -21 1z"/>
<path d="M1111 2014 c0 -11 3 -14 6 -6 3 7 2 16 -1 19 -3 4 -6 -2 -5 -13z"/>
<path d="M649 1999 c0 -2 -2 -15 -3 -28 -3 -23 -2 -23 11 -5 8 10 16 17 18 14
2 -3 7 0 12 5 4 6 4 7 -1 3 -5 -4 -15 -3 -23 3 -7 6 -13 10 -14 8z"/>
<path d="M571 1883 c-10 -26 -10 -27 4 -9 8 11 15 23 15 28 0 15 -7 8 -19 -19z"/>
<path d="M490 1816 c0 -2 8 -10 18 -17 15 -13 16 -12 3 4 -13 16 -21 21 -21
13z"/>
<path d="M1458 1790 c-17 -29 -71 -63 -143 -87 -39 -13 -39 -13 -6 -8 82 13
181 80 169 114 -1 6 -11 -3 -20 -19z"/>
<path d="M425 1791 c-6 -11 13 -26 22 -17 4 3 1 6 -6 6 -7 0 -9 5 -6 10 3 6 4
10 1 10 -3 0 -7 -4 -11 -9z"/>
<path d="M480 1790 c0 -5 5 -10 11 -10 5 0 7 5 4 10 -3 6 -8 10 -11 10 -2 0
-4 -4 -4 -10z"/>
<path d="M464 1771 c8 -12 -19 -33 -29 -23 -5 4 -5 1 -1 -6 5 -9 12 -10 19 -3
7 5 16 9 22 9 17 1 17 19 0 26 -9 3 -14 2 -11 -3z"/>
<path d="M406 1753 c-6 -14 -5 -15 5 -6 7 7 10 15 7 18 -3 3 -9 -2 -12 -12z"/>
<path d="M413 1685 c0 -8 4 -12 9 -9 5 3 6 10 3 15 -9 13 -12 11 -12 -6z"/>
<path d="M1729 2093 c-13 -16 -12 -17 4 -4 9 7 17 15 17 17 0 8 -8 3 -21 -13z"/>
<path d="M1606 1912 c-2 -4 -1 -14 3 -21 6 -9 11 -10 15 -2 4 6 2 11 -4 11 -6
0 -8 5 -5 10 3 6 4 10 1 10 -3 0 -7 -4 -10 -8z"/>
<path d="M1585 1869 c-4 -6 -5 -12 -2 -15 2 -3 7 2 10 11 7 17 1 20 -8 4z"/>
<path d="M1965 2050 c3 -5 11 -10 16 -10 6 0 7 5 4 10 -3 6 -11 10 -16 10 -6
0 -7 -4 -4 -10z"/>
<path d="M3335 2050 c-3 -6 1 -7 9 -4 18 7 21 14 7 14 -6 0 -13 -4 -16 -10z"/>
<path d="M3360 2014 c-29 -37 -55 -81 -37 -64 14 14 78 102 75 105 -2 2 -19
-17 -38 -41z"/>
<path d="M2866 2014 c-16 -19 -26 -37 -24 -40 3 -3 20 13 38 36 39 49 27 53
-14 4z"/>
<path d="M1930 2030 c-23 -7 -23 -8 -3 -9 12 -1 25 4 28 9 3 6 5 10 3 9 -2 -1
-14 -5 -28 -9z"/>
<path d="M2278 2033 c6 -2 9 -10 6 -15 -4 -7 -2 -8 5 -4 13 9 5 26 -12 25 -9
0 -8 -2 1 -6z"/>
<path d="M2847 2033 c-4 -3 -7 -11 -7 -17 0 -6 5 -5 12 2 6 6 9 14 7 17 -3 3
-9 2 -12 -2z"/>
<path d="M3316 2018 c3 -5 10 -6 15 -3 13 9 11 12 -6 12 -8 0 -12 -4 -9 -9z"/>
<path d="M3594 1983 c-21 -27 -53 -67 -72 -90 -19 -24 -32 -43 -29 -43 4 0
104 120 135 162 27 37 3 16 -34 -29z"/>
<path d="M2536 1988 c1 -18 -2 -39 -8 -45 -7 -9 -7 -13 0 -13 5 0 15 14 22 31
11 25 11 33 -2 45 -12 13 -14 10 -12 -18z"/>
<path d="M3101 2012 c0 -8 -6 -10 -13 -6 -10 6 -10 4 0 -8 7 -8 10 -24 6 -34
-5 -18 -5 -18 6 -1 6 10 9 28 7 40 -2 12 -5 16 -6 9z"/>
<path d="M1947 1985 c-36 -25 -42 -35 -38 -64 2 -7 -4 -11 -11 -9 -15 6 -12
35 5 59 7 8 -3 -1 -22 -20 -53 -57 -91 -122 -91 -157 0 -42 11 -48 53 -30 78
32 177 152 177 213 0 41 -20 43 -73 8z m28 -3 c-53 -42 -60 -46 -33 -19 16 15
31 27 35 27 4 0 3 -3 -2 -8z m15 -42 c-6 -12 -16 -17 -26 -13 -14 5 -13 8 5
18 12 6 18 15 14 20 -4 4 -2 5 5 1 9 -5 9 -13 2 -26z m-125 -50 c-13 -14 -15
-24 -8 -31 7 -7 21 1 47 27 20 21 36 31 36 23 0 -11 2 -11 10 1 6 9 10 10 10
3 0 -6 -5 -15 -10 -18 -6 -4 -8 -10 -5 -15 6 -11 -30 -32 -38 -23 -4 3 -4 -5
-2 -17 2 -12 2 -20 -2 -16 -3 3 -13 0 -21 -7 -13 -9 -14 -9 -8 1 4 6 2 12 -3
12 -6 0 -11 -4 -11 -10 0 -5 -5 -10 -10 -10 -7 0 -7 6 0 19 5 11 6 22 1 25 -5
3 -18 -16 -29 -42 -12 -26 -21 -39 -22 -29 0 31 66 144 78 133 3 -3 -3 -15
-13 -26z"/>
<path d="M2581 1984 c0 -11 3 -14 6 -6 3 7 2 16 -1 19 -3 4 -6 -2 -5 -13z"/>
<path d="M3267 1957 l-17 -32 20 24 c17 20 26 41 18 41 -2 0 -11 -15 -21 -33z"/>
<path d="M3521 1956 c-21 -22 -21 -24 -5 -22 11 2 19 7 19 12 0 5 4 15 8 22
13 20 2 14 -22 -12z"/>
<path d="M3050 1916 c0 -2 7 -9 15 -16 9 -7 15 -8 15 -2 0 5 -7 12 -15 16 -8
3 -15 4 -15 2z"/>
<path d="M3477 1909 c-9 -6 -17 -15 -17 -22 0 -8 3 -7 9 2 5 7 13 11 19 7 6
-3 13 -2 16 3 9 15 -7 21 -27 10z"/>
<path d="M2714 1878 l-19 -23 23 19 c12 11 22 21 22 23 0 8 -8 2 -26 -19z"/>
<path d="M1760 1860 c-6 -11 -7 -20 -2 -20 6 0 12 9 15 20 3 11 3 20 1 20 -2
0 -8 -9 -14 -20z"/>
<path d="M2174 1863 c3 -20 4 -21 30 -6 12 7 15 13 7 17 -6 4 -11 2 -11 -5 0
-9 -3 -9 -14 0 -12 10 -14 9 -12 -6z"/>
<path d="M3446 1863 c2 -7 -2 -13 -8 -13 -6 0 -8 -3 -5 -7 4 -3 1 -13 -5 -22
-7 -9 -3 -7 8 4 10 11 26 26 34 34 13 12 13 13 -2 8 -9 -3 -19 -3 -21 1 -2 4
-2 1 -1 -5z"/>
<path d="M2130 1826 c0 -2 8 -10 18 -17 15 -13 16 -12 3 4 -13 16 -21 21 -21
13z"/>
<path d="M2665 1799 c-4 -6 -4 -13 -1 -16 3 -4 6 -1 6 6 0 8 6 11 16 7 8 -3
12 -2 9 4 -8 13 -22 13 -30 -1z"/>
<path d="M3396 1784 c-6 -15 -4 -15 11 -3 10 7 20 15 22 16 2 2 -3 3 -11 3 -9
0 -19 -7 -22 -16z"/>
<path d="M3439 1783 c-13 -16 -12 -17 4 -4 9 7 17 15 17 17 0 8 -8 3 -21 -13z"/>
<path d="M3100 1720 c-8 -5 -10 -10 -5 -10 6 0 17 5 25 10 8 5 11 10 5 10 -5
0 -17 -5 -25 -10z"/>
<path d="M1818 1713 c7 -3 16 -2 19 1 4 3 -2 6 -13 5 -11 0 -14 -3 -6 -6z"/>
<path d="M1480 1910 c-9 -6 -10 -10 -3 -10 6 0 15 5 18 10 8 12 4 12 -15 0z"/>
<path d="M1194 1842 c3 -6 -2 -15 -11 -21 -10 -6 -13 -11 -7 -11 20 0 37 27
23 36 -7 4 -9 3 -5 -4z"/>
<path d="M4087 5169 c7 -7 15 -10 18 -7 3 3 -2 9 -12 12 -14 6 -15 5 -6 -5z"/>
<path d="M3985 5110 c-16 -7 -17 -9 -3 -9 9 -1 20 4 23 9 7 11 7 11 -20 0z"/>
<path d="M4317 5070 c-14 -11 -57 -33 -96 -49 -212 -86 -599 -392 -1028 -813
-78 -77 -136 -138 -129 -136 7 2 89 75 182 164 339 322 574 520 799 671 71 48
204 117 211 110 3 -2 -29 -23 -71 -46 -236 -130 -553 -386 -938 -757 l-148
-142 53 -6 c29 -3 125 -10 213 -17 88 -6 197 -17 241 -23 l81 -12 69 139 c38
76 73 141 77 144 5 3 -13 -36 -38 -86 -64 -129 -95 -201 -86 -201 4 0 21 30
36 68 16 37 52 114 80 172 29 58 50 111 47 119 -3 8 0 11 7 7 7 -5 9 -1 4 10
-5 13 -3 15 7 9 9 -5 11 -4 6 3 -6 11 28 92 39 92 3 0 -4 -19 -16 -42 -37 -75
-4 -26 46 66 26 49 42 85 34 81 -7 -5 5 23 26 61 46 83 135 224 142 224 5 0 3
-3 -52 -90 -56 -88 -108 -180 -101 -180 2 0 19 26 37 58 18 31 53 89 78 127
24 39 44 78 43 87 0 10 4 21 10 24 7 5 8 2 3 -6 -5 -8 -4 -11 3 -6 6 4 9 13 6
20 -3 8 0 17 7 22 8 4 10 3 5 -4 -4 -7 -5 -12 -3 -12 2 0 21 25 41 55 21 30
54 64 72 76 19 11 34 25 34 30 0 13 -4 12 -33 -11z m-173 -177 c-10 -8 -18
-19 -16 -24 1 -6 -3 -7 -9 -3 -9 5 -10 2 -6 -9 4 -11 2 -14 -8 -10 -8 3 -12 9
-9 14 7 12 -29 -2 -38 -15 -5 -7 -8 -7 -8 2 0 7 11 17 24 22 13 5 27 14 31 19
3 6 15 11 26 11 13 0 18 4 13 12 -5 7 -3 8 6 3 10 -6 9 -11 -6 -22z m-49 -53
c7 -12 -22 -70 -36 -70 -6 0 -3 7 5 16 15 14 20 24 13 24 -2 0 -16 -14 -33
-32 -16 -18 -22 -27 -13 -20 14 10 18 10 22 -2 4 -9 -2 -21 -13 -29 -11 -8
-17 -17 -12 -22 4 -4 -2 -5 -12 -1 -15 5 -17 4 -7 -7 9 -11 6 -20 -10 -41 -11
-14 -17 -26 -14 -26 4 0 2 -7 -5 -15 -7 -8 -9 -15 -5 -15 5 0 5 -3 2 -7 -4 -3
-17 2 -29 13 -23 19 -23 19 -5 -2 18 -22 23 -39 8 -29 -5 3 -13 0 -17 -6 -4
-8 -3 -9 4 -5 19 11 14 -5 -5 -21 -12 -10 -13 -12 -3 -8 10 4 9 2 -2 -8 -10
-8 -18 -19 -18 -25 0 -6 -5 -22 -11 -36 -10 -22 -15 -24 -33 -14 l-21 11 20
-23 20 -23 -20 7 c-16 6 -17 5 -8 -5 10 -10 9 -17 -5 -33 -11 -12 -12 -16 -3
-11 8 5 3 -7 -11 -26 -14 -19 -29 -44 -33 -56 -3 -13 -11 -23 -16 -23 -6 0 -6
7 1 19 7 14 7 22 -2 27 -7 5 -8 3 -3 -6 6 -10 4 -12 -10 -6 -14 5 -16 4 -7 -7
7 -8 9 -16 7 -19 -12 -11 -14 -48 -3 -42 6 4 -1 -13 -16 -37 -14 -24 -31 -43
-37 -41 -7 1 -7 -4 1 -17 7 -14 7 -22 -2 -27 -7 -5 -8 -3 -3 6 5 9 4 11 -3 6
-7 -4 -12 -14 -12 -22 0 -8 -4 -12 -10 -9 -5 3 -7 0 -5 -7 3 -8 -8 -21 -25
-31 -29 -17 -30 -17 -30 0 0 11 -3 14 -8 7 -8 -13 -152 -1 -190 16 -16 7 -21
7 -17 0 8 -12 13 -12 -82 1 -42 6 -85 15 -95 20 -12 6 -25 6 -39 -2 -15 -8
-19 -8 -15 0 4 6 3 11 -3 11 -5 0 -12 -6 -14 -12 -4 -10 -6 -10 -6 0 -1 7 10
18 24 24 13 6 27 19 30 28 3 10 16 26 28 36 22 19 22 19 4 -2 -14 -17 -14 -21
-3 -21 8 0 14 3 13 6 -3 14 27 54 56 73 18 11 23 17 12 14 -19 -6 -19 -6 -1 9
10 8 23 12 29 8 6 -3 7 -2 4 4 -3 5 12 27 34 49 28 27 38 33 34 19 -4 -11 2
-6 13 12 12 17 31 37 44 44 13 6 37 26 53 43 38 39 115 106 143 125 11 8 19
18 16 23 -3 4 7 10 21 14 14 3 24 9 21 11 -6 7 19 33 32 33 6 0 13 7 16 16 3
9 13 14 21 10 8 -3 17 0 21 6 5 7 2 8 -7 4 -8 -4 -5 0 6 8 11 9 28 23 38 31 9
8 17 12 17 10 0 -3 6 0 14 7 8 7 11 17 8 22 -3 5 0 6 6 2 6 -3 26 7 45 24 19
16 37 27 41 23 3 -3 6 -1 6 5 0 16 37 24 59 13 14 -8 22 -8 27 1 4 7 3 8 -4 4
-7 -4 -12 -2 -12 3 0 14 17 14 25 1z m-120 -290 c-9 -16 -18 -30 -21 -30 -2 0
2 14 11 30 9 17 18 30 21 30 2 0 -2 -13 -11 -30z"/>
<path d="M3940 4637 c0 -2 6 -10 14 -16 11 -9 16 -9 22 1 4 7 4 10 -1 6 -4 -4
-14 -3 -22 3 -7 6 -13 9 -13 6z"/>
<path d="M4245 5060 c-3 -6 1 -7 9 -4 18 7 21 14 7 14 -6 0 -13 -4 -16 -10z"/>
<path d="M4555 5050 c-4 -11 -10 -18 -15 -15 -9 6 -23 -12 -27 -34 -1 -7 14 1
32 19 19 18 32 37 29 42 -8 12 -12 10 -19 -12z"/>
<path d="M4489 5023 c-13 -16 -12 -17 4 -4 9 7 17 15 17 17 0 8 -8 3 -21 -13z"/>
<path d="M3785 5020 c3 -5 8 -10 11 -10 2 0 4 5 4 10 0 6 -5 10 -11 10 -5 0
-7 -4 -4 -10z"/>
<path d="M4465 4943 c-14 -15 -25 -32 -25 -37 0 -6 3 -6 8 0 4 5 18 21 31 37
32 35 20 35 -14 0z"/>
<path d="M4009 4943 c-13 -16 -12 -17 4 -4 9 7 17 15 17 17 0 8 -8 3 -21 -13z"/>
<path d="M3630 4946 c0 -2 7 -7 16 -10 8 -3 12 -2 9 4 -6 10 -25 14 -25 6z"/>
<path d="M3605 4920 c-3 -6 1 -7 9 -4 18 7 21 14 7 14 -6 0 -13 -4 -16 -10z"/>
<path d="M3960 4910 c-8 -5 -12 -12 -9 -15 4 -3 12 1 19 10 14 17 11 19 -10 5z"/>
<path d="M4206 4808 c3 -5 10 -6 15 -3 13 9 11 12 -6 12 -8 0 -12 -4 -9 -9z"/>
<path d="M3410 4796 c0 -2 7 -7 16 -10 8 -3 12 -2 9 4 -6 10 -25 14 -25 6z"/>
<path d="M4326 4787 c3 -10 9 -15 12 -12 3 3 0 11 -7 18 -10 9 -11 8 -5 -6z"/>
<path d="M3765 4780 c-3 -6 1 -7 9 -4 18 7 21 14 7 14 -6 0 -13 -4 -16 -10z"/>
<path d="M3496 4733 c-6 -14 -5 -15 5 -6 7 7 10 15 7 18 -3 3 -9 -2 -12 -12z"/>
<path d="M3314 4709 c-3 -6 -15 -9 -25 -6 -11 3 -17 1 -13 -4 8 -14 30 -11 44
6 7 8 10 15 7 15 -3 0 -9 -5 -13 -11z"/>
<path d="M3420 4670 c-9 -6 -10 -10 -3 -10 6 0 15 5 18 10 8 12 4 12 -15 0z"/>
<path d="M3540 4636 c0 -2 8 -10 18 -17 15 -13 16 -12 3 4 -13 16 -21 21 -21
13z"/>
<path d="M3524 4610 c0 -13 4 -16 10 -10 7 7 7 13 0 20 -6 6 -10 3 -10 -10z"/>
<path d="M4296 4492 c-3 -5 1 -9 9 -9 8 0 12 4 9 9 -3 4 -7 8 -9 8 -2 0 -6 -4
-9 -8z"/>
<path d="M2065 4479 c-4 -6 -5 -12 -2 -15 2 -3 7 2 10 11 7 17 1 20 -8 4z"/>
<path d="M4173 4459 c-2 -23 3 -25 10 -4 4 8 3 16 -1 19 -4 3 -9 -4 -9 -15z"/>
<path d="M2039 4433 c-13 -16 -12 -17 4 -4 16 13 21 21 13 21 -2 0 -10 -8 -17
-17z"/>
<path d="M3953 4415 c0 -8 4 -12 9 -9 5 3 6 10 3 15 -9 13 -12 11 -12 -6z"/>
<path d="M4290 4421 c0 -6 4 -13 10 -16 6 -3 7 1 4 9 -7 18 -14 21 -14 7z"/>
<path d="M2876 4403 c-6 -14 -5 -15 5 -6 7 7 10 15 7 18 -3 3 -9 -2 -12 -12z"/>
<path d="M1778 4378 c-7 -17 15 -19 29 -3 4 4 3 5 -4 2 -6 -4 -13 -2 -15 5 -3
8 -6 6 -10 -4z"/>
<path d="M1875 4310 c-3 -5 -1 -10 4 -10 6 0 11 5 11 10 0 6 -2 10 -4 10 -3 0
-8 -4 -11 -10z"/>
<path d="M2731 4304 c6 -7 16 -11 21 -8 11 7 3 17 -18 20 -12 2 -13 -1 -3 -12z"/>
<path d="M3205 4311 c-3 -5 -2 -12 3 -15 5 -3 9 1 9 9 0 17 -3 19 -12 6z"/>
<path d="M3136 4225 c-11 -8 -14 -15 -7 -15 7 0 9 -5 5 -12 -5 -7 -3 -8 5 -4
7 5 10 11 7 14 -3 3 -1 11 5 19 15 17 9 16 -15 -2z"/>
<path d="M1805 4220 c-3 -5 -1 -10 4 -10 6 0 11 5 11 10 0 6 -2 10 -4 10 -3 0
-8 -4 -11 -10z"/>
<path d="M2575 4150 c-3 -5 -15 -10 -26 -10 -10 0 -19 -4 -19 -10 0 -5 4 -10
9 -10 10 0 59 39 49 40 -4 0 -10 -4 -13 -10z"/>
<path d="M3049 4158 c-4 -15 -6 -50 -3 -40 3 6 11 9 17 5 8 -5 8 -2 0 9 -7 8
-10 18 -6 21 3 4 3 7 0 7 -4 0 -7 -1 -8 -2z"/>
<path d="M4055 4149 c-4 -6 -5 -12 -2 -15 2 -3 7 2 10 11 7 17 1 20 -8 4z"/>
<path d="M4205 4140 c10 -11 20 -20 23 -20 3 0 -3 9 -13 20 -10 11 -20 20 -23
20 -3 0 3 -9 13 -20z"/>
<path d="M4180 4131 c0 -5 7 -15 17 -22 15 -13 15 -12 4 9 -12 23 -21 28 -21
13z"/>
<path d="M4275 3991 c-6 -11 13 -26 22 -17 4 3 1 6 -6 6 -7 0 -9 5 -6 10 3 6
4 10 1 10 -3 0 -7 -4 -11 -9z"/>
<path d="M3443 3923 c15 -2 39 -2 55 0 15 2 2 4 -28 4 -30 0 -43 -2 -27 -4z"/>
<path d="M1795 3849 c-3 -4 2 -6 10 -5 21 3 28 13 10 13 -9 0 -18 -4 -20 -8z"/>
<path d="M3960 3853 c0 -4 37 -16 83 -27 221 -49 434 -163 438 -234 0 -10 3
-12 5 -5 8 18 -22 67 -58 98 -46 39 -197 109 -298 138 -103 30 -170 42 -170
30z"/>
<path d="M4464 3829 c-3 -6 -2 -15 3 -20 5 -5 9 -1 9 11 0 23 -2 24 -12 9z"/>
<path d="M1456 3807 c3 -10 9 -15 12 -12 3 3 0 11 -7 18 -10 9 -11 8 -5 -6z"/>
<path d="M2760 3769 c0 -5 5 -7 10 -4 6 3 10 8 10 11 0 2 -4 4 -10 4 -5 0 -10
-5 -10 -11z"/>
<path d="M3920 3745 c0 -16 16 -20 24 -6 3 5 -1 11 -9 15 -9 3 -15 0 -15 -9z"/>
<path d="M1641 3724 c0 -11 3 -14 6 -6 3 7 2 16 -1 19 -3 4 -6 -2 -5 -13z"/>
<path d="M2665 3709 c-4 -6 -5 -12 -2 -15 2 -3 7 2 10 11 7 17 1 20 -8 4z"/>
<path d="M2686 3693 c-6 -14 -5 -15 5 -6 7 7 10 15 7 18 -3 3 -9 -2 -12 -12z"/>
<path d="M3671 3694 c0 -11 3 -14 6 -6 3 7 2 16 -1 19 -3 4 -6 -2 -5 -13z"/>
<path d="M1731 3680 c6 -5 9 -15 6 -24 -9 -24 16 -20 41 7 l21 22 -40 1 c-23
1 -35 -2 -28 -6z"/>
<path d="M2636 3672 c-3 -5 1 -9 9 -9 8 0 12 4 9 9 -3 4 -7 8 -9 8 -2 0 -6 -4
-9 -8z"/>
<path d="M2605 3620 c-10 -11 -16 -20 -13 -20 3 0 15 9 28 20 13 11 19 20 13
20 -5 0 -18 -9 -28 -20z"/>
<path d="M3777 3586 c-10 -8 -14 -16 -10 -19 5 -3 14 3 21 14 14 22 13 23 -11
5z"/>
<path d="M2490 3500 c0 -5 5 -10 11 -10 5 0 7 5 4 10 -3 6 -8 10 -11 10 -2 0
-4 -4 -4 -10z"/>
<path d="M2429 3436 c-1 -3 -2 -11 -3 -16 0 -6 -8 -15 -16 -20 -8 -5 -10 -10
-4 -10 18 0 47 37 35 45 -6 3 -12 4 -12 1z"/>
<path d="M3450 3371 c0 -6 4 -13 10 -16 6 -3 7 1 4 9 -7 18 -14 21 -14 7z"/>
<path d="M2349 3333 c-13 -16 -12 -17 4 -4 16 13 21 21 13 21 -2 0 -10 -8 -17
-17z"/>
<path d="M2257 3258 c-12 -9 -14 -17 -7 -28 8 -12 11 -13 22 -2 7 8 9 13 3 12
-24 -5 -27 1 -9 15 10 8 16 15 13 15 -3 0 -13 -6 -22 -12z"/>
<path d="M1776 3247 c3 -10 9 -15 12 -12 3 3 0 11 -7 18 -10 9 -11 8 -5 -6z"/>
<path d="M1889 3223 c-13 -16 -12 -17 4 -4 16 13 21 21 13 21 -2 0 -10 -8 -17
-17z"/>
<path d="M1740 3190 c-9 -6 -10 -10 -3 -10 6 0 15 5 18 10 8 12 4 12 -15 0z"/>
<path d="M2205 3180 c-3 -5 -3 -10 2 -10 4 0 1 -5 -7 -11 -12 -8 -12 -10 -1
-7 8 2 15 12 17 21 3 19 -2 22 -11 7z"/>
<path d="M3610 3119 c0 -5 5 -7 10 -4 6 3 10 8 10 11 0 2 -4 4 -10 4 -5 0 -10
-5 -10 -11z"/>
<path d="M2140 3085 c-13 -14 -29 -25 -36 -25 -7 0 -16 -5 -20 -12 -4 -7 -3
-8 4 -4 21 13 13 -10 -11 -32 -13 -12 -27 -19 -31 -15 -4 4 -4 -1 0 -10 4 -10
10 -15 14 -10 4 4 31 36 59 71 53 63 63 82 21 37z"/>
<path d="M3621 3085 c-1 -17 -3 -18 -12 -5 -8 12 -9 10 -4 -8 4 -14 2 -24 -8
-27 -7 -3 -14 -11 -14 -18 0 -7 -4 -39 -8 -71 -6 -46 -5 -57 5 -51 9 6 9 3 0
-15 -6 -12 -9 -24 -6 -28 3 -3 6 1 6 9 0 11 2 11 10 -1 7 -11 10 -6 10 21 0
19 -4 39 -10 45 -12 12 -1 56 12 48 5 -3 6 5 3 19 -4 16 0 35 10 51 9 14 15
31 12 38 -3 7 -6 4 -6 -7z"/>
<path d="M3530 3031 c-12 -24 -14 -124 -1 -117 5 3 9 31 10 61 0 31 3 60 6 65
3 6 4 10 1 10 -3 0 -10 -9 -16 -19z"/>
<path d="M1606 3028 c3 -5 10 -6 15 -3 13 9 11 12 -6 12 -8 0 -12 -4 -9 -9z"/>
<path d="M1736 2991 c-11 -12 -14 -21 -7 -26 16 -9 30 3 28 25 -2 24 0 24 -21
1z"/>
<path d="M2024 2945 c-4 -8 -11 -12 -17 -8 -5 3 -7 1 -3 -5 3 -6 -4 -18 -16
-26 -12 -9 -18 -16 -12 -16 6 0 20 10 31 23 24 26 36 47 28 47 -3 0 -8 -7 -11
-15z"/>
<path d="M1671 2907 c-13 -21 -12 -21 5 -5 10 10 16 20 13 22 -3 3 -11 -5 -18
-17z"/>
<path d="M3536 2883 c-10 -25 4 -102 30 -160 24 -56 39 -66 49 -33 3 11 10 20
14 20 4 0 3 20 -3 45 -13 47 -26 71 -19 32 3 -14 0 -28 -6 -31 -7 -5 -11 2
-11 16 0 13 -5 30 -10 38 -7 11 -9 7 -6 -16 3 -31 25 -79 26 -56 0 18 20 4 20
-14 0 -8 -4 -12 -10 -9 -5 3 -7 0 -4 -8 3 -8 1 -18 -5 -22 -6 -3 -9 0 -6 8 3
7 -5 29 -18 48 -21 31 -31 76 -30 137 1 26 -3 28 -11 5z"/>
<path d="M1940 2855 c-6 -7 -13 -20 -14 -27 -2 -13 -24 -43 -58 -79 -9 -9 -15
-19 -12 -21 2 -3 -10 -17 -26 -33 -17 -16 -30 -36 -30 -44 1 -13 3 -12 11 3 6
10 41 56 78 102 37 47 68 91 68 99 0 19 -2 19 -17 0z"/>
<path d="M1460 2700 c0 -5 5 -10 11 -10 5 0 7 5 4 10 -3 6 -8 10 -11 10 -2 0
-4 -4 -4 -10z"/>
<path d="M3646 2660 c5 -8 9 -18 9 -22 0 -3 3 -9 7 -13 3 -4 5 0 4 9 -1 9 -8
22 -16 29 -10 10 -11 9 -4 -3z"/>
<path d="M3812 2627 c10 -8 16 -16 13 -19 -3 -2 2 -5 10 -5 19 0 10 14 -18 27
-20 10 -20 10 -5 -3z"/>
<path d="M4437 2618 c2 -5 11 -8 19 -8 8 0 14 -5 14 -11 0 -6 -6 -9 -14 -6 -8
3 -38 -1 -67 -8 -29 -8 -56 -12 -60 -9 -4 2 -9 0 -11 -6 -1 -5 -26 -11 -55
-12 -28 -1 -50 -5 -47 -9 6 -11 -34 -22 -47 -13 -8 4 -9 3 -5 -4 5 -8 -2 -12
-21 -12 -19 0 -24 -3 -15 -9 11 -7 11 -9 -2 -14 -9 -4 -16 -1 -16 6 0 7 -6 3
-12 -8 -7 -11 -11 -22 -9 -24 1 -2 -1 -7 -6 -10 -22 -16 -31 -57 -18 -87 15
-37 41 -59 50 -44 10 16 95 51 106 44 11 -6 -7 -44 -22 -44 -6 0 -8 4 -5 8 6
10 -40 9 -50 -1 -5 -4 -1 -5 9 -1 13 4 16 2 11 -9 -3 -8 -1 -18 5 -22 7 -4 1
-16 -14 -33 -14 -15 -25 -30 -25 -35 0 -4 -5 -5 -10 -2 -6 4 -10 3 -9 -2 5
-27 -4 -45 -28 -56 -16 -6 -32 -17 -38 -24 -15 -18 -62 -27 -70 -13 -5 8 -12
5 -22 -9 -8 -12 -19 -18 -25 -15 -6 4 -8 3 -5 -3 3 -5 -10 -18 -29 -28 -25
-13 -31 -21 -22 -27 10 -6 10 -10 -2 -18 -8 -5 -11 -10 -6 -10 5 0 4 -6 -2
-13 -19 -23 38 -73 78 -68 12 1 12 0 2 -7 -8 -5 -13 -13 -13 -18 1 -5 -11 -27
-25 -49 -14 -22 -27 -50 -28 -63 0 -12 -5 -20 -11 -18 -6 2 -10 -21 -9 -58 1
-33 -3 -70 -9 -81 -9 -17 -8 -18 4 -8 13 10 15 8 15 -15 -1 -15 4 -27 9 -28 6
0 30 -10 55 -22 56 -27 61 -27 94 -1 21 16 24 24 16 39 -5 10 -18 17 -27 16
-24 -4 -34 14 -21 37 7 14 7 17 -1 13 -17 -11 -13 10 4 24 8 7 15 18 15 25 0
7 7 18 15 25 8 7 13 15 11 19 -4 7 20 32 30 30 3 0 9 3 12 7 4 4 1 4 -5 0 -16
-9 -16 -4 1 29 10 18 16 22 20 13 3 -7 4 -3 2 10 -3 16 0 22 11 20 9 -2 18 4
20 12 4 13 3 13 -6 0 -7 -9 -11 -10 -11 -3 0 13 19 28 35 28 6 0 10 9 10 20 1
29 24 67 37 59 7 -4 8 -2 4 5 -5 8 0 10 19 7 15 -3 25 -3 22 1 -14 14 24 32
65 31 25 0 54 3 66 6 28 9 30 -14 2 -39 -11 -10 -17 -21 -15 -26 3 -4 1 -10
-5 -14 -5 -3 -15 -15 -21 -27 -9 -16 -8 -19 3 -12 10 6 11 5 2 -7 -16 -20 -34
-101 -34 -146 1 -33 28 -105 30 -78 0 6 6 3 13 -6 16 -21 100 -22 92 -1 -5 12
-3 13 10 2 9 -7 18 -10 22 -6 3 3 1 6 -6 6 -7 0 -9 5 -6 10 4 6 12 7 18 4 7
-4 9 -4 5 0 -8 10 60 71 69 62 3 -3 3 -6 -1 -6 -4 0 5 -11 21 -24 17 -15 36
-22 50 -20 14 3 23 -1 23 -8 0 -6 6 -3 14 8 21 28 29 12 13 -25 -7 -17 -15
-29 -18 -27 -3 3 -5 -3 -6 -12 -3 -39 -40 -142 -48 -135 -12 12 4 -17 31 -53
21 -29 28 -32 78 -32 31 1 53 4 51 8 -3 4 2 13 10 20 12 10 13 16 3 28 -11 13
-10 15 2 8 8 -4 6 0 -4 8 -11 9 -26 16 -34 16 -19 0 -6 40 21 64 18 15 18 18
4 13 -17 -7 -17 -6 0 24 10 17 26 39 36 49 9 11 17 22 17 26 0 17 52 74 62 68
7 -4 8 -2 4 4 -7 12 2 32 29 66 11 15 18 16 28 8 10 -9 14 -8 14 3 0 8 -3 12
-7 10 -4 -2 -7 2 -7 10 0 8 4 12 9 9 4 -3 12 5 16 17 5 12 11 18 14 13 3 -5 1
-20 -5 -34 -13 -33 -16 -79 -5 -86 4 -3 6 -9 3 -13 -2 -5 7 -19 20 -31 26 -24
62 -33 80 -20 6 4 18 5 28 1 16 -6 16 -8 1 -30 -13 -18 -18 -20 -25 -10 -6 10
-9 10 -9 2 0 -6 4 -14 10 -18 5 -3 7 -12 4 -20 -4 -8 -10 -12 -15 -9 -5 3 -6
-2 -3 -11 4 -8 1 -22 -6 -30 -7 -8 -9 -15 -4 -15 4 0 3 -5 -4 -12 -15 -15 -15
-69 -1 -102 7 -14 25 -30 41 -35 22 -8 27 -7 21 2 -5 8 -2 8 9 -1 10 -8 19 -9
22 -3 3 5 17 8 30 7 18 -2 23 1 18 12 -3 10 -1 13 6 8 8 -5 10 -1 5 10 -5 13
-3 15 8 9 8 -5 3 3 -10 18 -13 14 -29 23 -37 20 -18 -7 -18 2 2 21 8 9 11 16
5 16 -12 0 22 75 45 97 7 7 16 22 19 33 4 11 11 18 16 14 5 -3 7 -9 4 -14 -7
-11 22 -7 32 5 4 4 3 5 -3 2 -22 -12 -24 25 -4 53 11 15 20 33 20 38 0 6 8 17
18 24 9 7 30 31 46 53 16 22 37 48 45 57 32 35 49 62 53 88 1 3 6 10 13 15 17
14 27 45 15 45 -6 0 -10 6 -10 13 0 7 -9 18 -20 25 -16 10 -24 10 -42 0 -13
-7 -26 -17 -30 -23 -5 -6 -8 -6 -8 -1 0 6 -7 1 -15 -10 -8 -10 -15 -15 -15
-10 0 5 -8 2 -17 -5 -15 -12 -16 -12 -10 5 6 15 5 17 -6 8 -8 -7 -16 -10 -19
-7 -2 3 -4 -5 -3 -17 1 -12 8 -24 16 -26 12 -3 12 -2 0 6 -16 11 -4 21 22 17
10 -2 14 1 11 7 -4 7 -2 8 4 4 17 -10 16 -12 -25 -37 -21 -12 -51 -38 -66 -56
-16 -18 -35 -33 -43 -33 -8 0 -14 -7 -14 -16 0 -12 -6 -15 -24 -10 -14 3 -28
2 -31 -4 -3 -6 1 -7 9 -4 22 8 20 -9 -2 -22 -15 -10 -18 -8 -17 10 0 26 14 48
25 41 4 -3 7 6 5 20 -2 20 0 23 11 14 8 -6 11 -16 7 -23 -4 -7 -1 -6 9 1 8 7
18 10 22 6 4 -4 4 1 0 11 -5 12 -9 14 -14 6 -5 -8 -9 -6 -14 6 -12 32 12 40
40 13 15 -13 24 -19 21 -12 -4 6 -4 13 0 16 5 2 3 2 -4 1 -6 -2 -17 4 -23 11
-9 11 -7 21 9 44 30 41 26 57 -19 84 -22 13 -39 26 -38 28 2 2 -21 -19 -50
-48 -48 -49 -71 -66 -57 -44 8 14 -38 59 -55 53 -13 -5 -13 -3 0 14 14 17 13
18 -1 7 -10 -8 -19 -9 -27 -3 -9 7 -9 7 -2 -2 14 -16 13 -31 -2 -22 -7 4 -8 3
-4 -4 4 -7 2 -12 -3 -12 -16 0 -100 -88 -92 -96 3 -4 -2 -4 -12 -1 -10 4 -16
3 -12 -2 3 -5 -4 -13 -16 -16 -13 -4 -18 -12 -15 -21 3 -8 2 -12 -3 -9 -5 3
-12 1 -16 -4 -3 -6 -11 -9 -18 -7 -7 1 -8 1 -4 -2 14 -7 -14 -31 -30 -25 -11
4 -14 2 -9 -5 4 -7 2 -12 -4 -12 -6 0 -9 -4 -5 -9 6 -10 -33 -26 -42 -18 -2 3
6 16 19 29 13 13 23 27 23 31 0 4 6 12 14 16 7 5 11 13 7 19 -3 6 3 17 14 25
11 7 17 18 12 23 -4 4 0 3 9 -4 14 -11 16 -6 15 42 0 30 -4 52 -8 50 -3 -2
-13 5 -21 17 -13 17 -19 19 -36 9 -12 -6 -27 -8 -33 -4 -6 4 -8 3 -5 -3 4 -5
-4 -19 -16 -31 -12 -11 -33 -36 -47 -56 -14 -19 -31 -36 -39 -36 -8 0 -11 -3
-8 -6 12 -13 -14 -46 -33 -41 -13 3 -16 0 -13 -14 4 -13 0 -19 -11 -19 -9 0
-21 -9 -28 -20 -7 -11 -19 -20 -26 -20 -7 0 -11 -4 -7 -9 3 -5 1 -12 -4 -15
-11 -7 -9 13 3 32 4 7 5 16 2 19 -3 3 -1 12 5 20 10 11 15 11 27 1 13 -11 14
-10 5 7 -15 27 5 54 40 57 14 1 24 5 21 9 -2 4 -14 5 -27 2 -20 -5 -21 -4 -4
8 9 8 25 29 35 48 18 37 46 48 72 28 13 -11 13 -10 1 5 -8 12 -22 16 -38 13
l-25 -4 23 23 c13 12 27 21 31 19 4 -2 5 3 2 11 -3 9 -1 16 6 16 6 0 9 4 6 9
-3 4 1 17 10 27 14 18 15 18 9 -6 -5 -21 -4 -22 5 -7 6 9 9 21 5 26 -3 5 -1
12 4 15 5 3 12 22 16 42 5 30 2 41 -16 60 -12 13 -31 24 -41 24 -25 0 -90 -50
-85 -64 5 -14 -48 -68 -57 -58 -4 3 -4 -2 0 -12 5 -13 4 -17 -3 -13 -6 4 -10
-1 -9 -10 0 -10 -9 -20 -24 -24 -14 -4 -19 -7 -11 -8 8 -1 11 -4 8 -7 -4 -4
-13 -2 -20 5 -8 6 -40 13 -71 15 -32 2 -61 8 -64 12 -4 4 -1 4 6 0 6 -4 12 -2
12 4 0 13 58 98 87 127 14 14 24 18 31 11 8 -8 9 -4 5 10 -3 13 -10 19 -17 15
-6 -3 -4 0 4 8 8 8 20 21 28 29 7 8 11 9 7 3 -3 -7 -4 -13 0 -13 3 0 10 11 15
25 9 23 14 24 72 23 35 -1 83 2 108 5 31 5 39 4 25 -2 -11 -5 -14 -10 -7 -10
7 -1 23 4 34 10 15 8 19 8 13 0 -4 -8 5 -10 34 -5 29 5 41 3 41 -6 0 -7 7 -10
15 -7 19 8 30 -12 16 -26 -9 -9 -11 -7 -6 8 5 15 4 16 -3 6 -11 -15 2 -66 21
-78 6 -4 7 -1 2 8 -6 11 -5 12 6 1 11 -10 17 -8 32 10 10 13 16 17 12 11 -4
-9 -1 -11 10 -7 11 5 13 10 6 17 -6 6 -3 16 9 29 19 21 34 62 19 52 -5 -3 -9
-1 -9 5 0 5 5 13 10 16 13 8 3 25 -13 25 -7 0 -6 -4 3 -10 8 -5 10 -10 4 -10
-6 0 -17 7 -24 15 -10 12 -10 15 1 15 9 1 6 7 -8 19 -12 10 -19 22 -15 26 4 4
-3 3 -15 -4 -26 -13 -36 -14 -29 -2 3 5 -1 12 -10 15 -10 4 -13 2 -8 -6 5 -8
2 -9 -12 -3 -60 24 -114 34 -194 36 -50 1 -93 5 -96 10 -3 5 -11 9 -17 9 -7 0
-6 -4 3 -10 9 -6 10 -10 3 -10 -14 0 -45 29 -39 38 2 4 -6 7 -19 7 -13 0 -21
-3 -18 -7z m113 -58 c238 -20 335 -48 354 -102 11 -32 -8 -84 -36 -99 -27 -14
-35 -3 -15 19 39 43 9 74 -87 91 -105 19 -296 12 -296 -12 0 -5 -8 -16 -17
-24 -11 -8 -12 -11 -3 -7 17 9 -52 -81 -84 -109 -12 -10 -14 -16 -6 -12 8 4 3
-3 -11 -16 -14 -13 -32 -33 -40 -43 -12 -17 -12 -19 1 -12 8 5 4 -2 -10 -15
-14 -13 -19 -20 -10 -15 8 5 0 -5 -18 -23 l-32 -31 74 0 c41 0 93 -7 117 -15
28 -10 45 -12 47 -5 2 5 33 51 70 100 55 76 70 90 91 88 46 -6 45 -41 -4 -113
-25 -36 -45 -67 -45 -70 0 -2 -11 -16 -25 -31 -14 -15 -25 -38 -25 -50 0 -13
-5 -24 -11 -24 -5 0 -7 5 -3 12 4 7 3 8 -5 4 -6 -4 -9 -12 -6 -17 4 -5 1 -9
-6 -9 -7 0 -9 -3 -6 -6 4 -4 -7 -24 -24 -45 -16 -21 -32 -47 -34 -57 -2 -11
-13 -38 -24 -60 -20 -40 -28 -82 -15 -82 16 0 134 113 220 212 99 112 123 126
147 87 8 -13 0 -31 -40 -85 -51 -69 -93 -144 -93 -164 0 -38 129 52 253 174
77 77 101 96 117 91 39 -12 22 -46 -92 -186 -118 -145 -228 -324 -228 -371 0
-20 19 -34 43 -30 23 4 22 -15 -3 -28 -21 -11 -68 -6 -83 9 -35 35 13 175 108
317 25 36 45 69 45 71 0 2 -18 -10 -40 -28 -22 -18 -37 -36 -34 -40 3 -5 -1
-6 -9 -3 -8 3 -18 0 -23 -7 -4 -8 -3 -10 4 -5 7 4 12 5 12 2 0 -3 -13 -12 -30
-21 -34 -18 -80 -20 -80 -4 0 6 -7 9 -15 5 -13 -5 -17 1 -17 24 -1 3 2 25 6
48 l7 44 -58 -63 c-95 -104 -103 -111 -119 -105 -9 3 -12 1 -9 -4 9 -14 -1
-12 -35 5 -18 9 -31 26 -35 44 -12 58 36 192 111 306 9 14 12 25 6 25 -5 0
-24 3 -42 7 -22 4 -31 3 -27 -5 5 -7 -17 -9 -70 -7 -62 3 -70 2 -38 -5 38 -8
37 -8 -17 -6 -48 2 -58 0 -67 -18 -6 -12 -23 -37 -38 -55 -16 -19 -21 -31 -13
-27 8 4 4 -2 -9 -13 -13 -12 -20 -21 -16 -21 3 0 -7 -19 -23 -42 -81 -120
-105 -161 -118 -198 -17 -50 -5 -80 31 -80 16 0 25 -6 25 -15 0 -30 -92 -8
-122 29 -41 50 -1 195 95 344 47 72 47 72 20 66 -16 -4 -35 -11 -43 -16 -11
-6 -8 -7 10 -3 l25 6 -25 -15 c-31 -19 -43 -20 -34 -3 5 9 3 9 -7 -1 -8 -7
-14 -17 -14 -22 0 -6 -4 -10 -10 -10 -5 0 -10 17 -10 37 0 31 6 41 35 61 19
13 61 31 93 40 51 15 64 23 90 62 57 84 180 245 188 248 23 9 5 21 -23 15 -55
-10 -79 -24 -33 -18 50 6 26 -6 -63 -31 -35 -9 -67 -24 -71 -32 -14 -25 -31
-3 -31 39 0 68 61 106 218 136 48 9 91 20 97 25 11 10 6 10 145 -2z m350 -52
c0 -6 -6 -5 -15 2 -8 7 -15 14 -15 16 0 2 7 1 15 -2 8 -4 15 -11 15 -16z
m-156 -46 c22 -4 -26 -7 -115 -7 -84 -1 -142 2 -129 6 33 9 194 10 244 1z m73
-18 c-3 -3 -12 -4 -19 -1 -8 3 -5 6 6 6 11 1 17 -2 13 -5z m-627 -118 c0 -3
-4 -8 -10 -11 -5 -3 -10 -1 -10 4 0 6 5 11 10 11 6 0 10 -2 10 -4z m1014 -232
c9 -24 8 -29 -20 -60 -63 -72 -141 -208 -125 -219 28 -17 127 51 257 177 56
54 106 98 112 98 5 0 15 -7 22 -15 15 -18 7 -33 -90 -155 -145 -182 -244 -349
-238 -398 3 -23 7 -27 31 -24 18 2 27 -2 27 -12 0 -19 -56 -31 -74 -17 -8 7
-20 10 -27 9 -11 -2 -13 10 -11 52 3 61 44 159 108 256 22 33 43 66 48 74 12
18 -72 -45 -97 -74 -10 -12 -16 -15 -12 -9 4 9 1 11 -9 7 -9 -3 -13 -11 -9
-17 4 -6 0 -8 -10 -4 -10 3 -17 2 -17 -3 0 -5 -11 -9 -24 -8 -14 1 -22 6 -19
11 3 5 -5 7 -18 5 -23 -3 -24 0 -24 47 1 62 35 137 106 229 42 53 57 66 79 66
16 0 30 -7 34 -16z m-974 -59 c-7 -8 -17 -12 -22 -9 -6 4 -5 10 3 15 22 14 33
10 19 -6z m-350 -35 c0 -5 -2 -10 -4 -10 -3 0 -8 5 -11 10 -3 6 -1 10 4 10 6
0 11 -4 11 -10z m1415 -10 c-3 -5 -12 -10 -18 -10 -7 0 -6 4 3 10 19 12 23 12
15 0z m-745 -163 c0 -2 -19 -21 -42 -42 l-43 -40 40 43 c36 39 45 47 45 39z"/>
<path d="M4145 2401 c-53 -25 -43 -26 20 -1 28 10 43 19 35 19 -8 0 -33 -8
-55 -18z"/>
<path d="M4218 2123 c7 -3 16 -2 19 1 4 3 -2 6 -13 5 -11 0 -14 -3 -6 -6z"/>
<path d="M4050 2070 c-9 -6 -10 -10 -3 -10 6 0 15 5 18 10 8 12 4 12 -15 0z"/>
<path d="M4069 2048 c-5 -18 -6 -38 -1 -34 7 8 12 36 6 36 -2 0 -4 -1 -5 -2z"/>
<path d="M4003 1904 c3 -4 -3 -18 -13 -32 -23 -28 -29 -102 -7 -84 20 17 49
72 38 72 -6 0 -11 -6 -11 -14 0 -8 -7 -17 -16 -20 -13 -5 -14 -4 -6 7 7 8 9
17 5 20 -10 10 18 38 31 30 6 -4 5 1 -3 10 -7 9 -16 17 -19 17 -3 0 -2 -3 1
-6z"/>
<path d="M4786 1783 c-6 -14 -5 -15 5 -6 7 7 10 15 7 18 -3 3 -9 -2 -12 -12z"/>
<path d="M1630 2547 c0 -2 6 -10 14 -16 11 -9 16 -9 22 1 4 7 4 10 -1 6 -4 -4
-14 -3 -22 3 -7 6 -13 9 -13 6z"/>
<path d="M1056 2467 c3 -10 9 -15 12 -12 3 3 0 11 -7 18 -10 9 -11 8 -5 -6z"/>
<path d="M1606 2437 c3 -10 9 -15 12 -12 3 3 0 11 -7 18 -10 9 -11 8 -5 -6z"/>
<path d="M1385 2290 c-3 -5 -1 -10 4 -10 6 0 11 5 11 10 0 6 -2 10 -4 10 -3 0
-8 -4 -11 -10z"/>
<path d="M4522 2278 c-7 -7 -12 -16 -12 -21 0 -5 7 -1 16 8 9 9 14 18 12 20
-2 3 -10 -1 -16 -7z"/>
<path d="M1345 2219 c-4 -6 -5 -12 -2 -15 2 -3 7 2 10 11 7 17 1 20 -8 4z"/>
<path d="M4084 2219 c-3 -6 -2 -15 3 -20 5 -5 9 -1 9 11 0 23 -2 24 -12 9z"/>
<path d="M4696 2207 c3 -10 9 -15 12 -12 3 3 0 11 -7 18 -10 9 -11 8 -5 -6z"/>
<path d="M2190 2190 c0 -5 5 -10 11 -10 5 0 7 5 4 10 -3 6 -8 10 -11 10 -2 0
-4 -4 -4 -10z"/>
<path d="M2936 2151 c-3 -5 2 -15 12 -22 15 -12 16 -12 5 2 -7 9 -10 19 -6 22
3 4 4 7 0 7 -3 0 -8 -4 -11 -9z"/>
<path d="M5180 2150 c0 -5 5 -10 11 -10 5 0 7 5 4 10 -3 6 -8 10 -11 10 -2 0
-4 -4 -4 -10z"/>
<path d="M3609 2133 c-13 -16 -12 -17 4 -4 16 13 21 21 13 21 -2 0 -10 -8 -17
-17z"/>
<path d="M3305 2130 c-3 -6 1 -7 9 -4 18 7 21 14 7 14 -6 0 -13 -4 -16 -10z"/>
<path d="M5366 2125 c-9 -26 -7 -32 5 -12 6 10 9 21 6 23 -2 3 -7 -2 -11 -11z"/>
<path d="M4665 2100 c-3 -5 -1 -10 4 -10 6 0 11 5 11 10 0 6 -2 10 -4 10 -3 0
-8 -4 -11 -10z"/>
<path d="M2600 2074 c0 -1 6 -7 14 -13 10 -9 15 -8 19 2 3 8 -3 13 -14 13 -11
0 -19 -1 -19 -2z"/>
<path d="M3229 2080 c-1 -3 -3 -15 -4 -28 -2 -22 -1 -22 13 -8 13 12 14 19 4
28 -7 7 -13 10 -13 8z"/>
<path d="M2652 1995 c4 -4 3 -16 -3 -26 -5 -11 -7 -19 -5 -19 3 0 10 9 16 19
7 15 7 22 -2 27 -7 4 -10 4 -6 -1z"/>
<path d="M3399 1973 c-13 -17 -13 -17 6 -3 11 8 22 16 24 17 2 2 0 3 -6 3 -6
0 -17 -8 -24 -17z"/>
<path d="M4509 1953 c-13 -16 -12 -17 4 -4 9 7 17 15 17 17 0 8 -8 3 -21 -13z"/>
<path d="M3900 1935 c7 -8 17 -15 22 -15 5 0 3 7 -6 15 -8 8 -18 15 -22 15 -3
0 -1 -7 6 -15z"/>
<path d="M5420 1929 c0 -5 5 -7 10 -4 6 3 10 8 10 11 0 2 -4 4 -10 4 -5 0 -10
-5 -10 -11z"/>
<path d="M4476 1911 c-4 -5 -2 -12 3 -15 5 -4 12 -2 15 3 4 5 2 12 -3 15 -5 4
-12 2 -15 -3z"/>
<path d="M2920 1901 c0 -6 4 -13 10 -16 6 -3 7 1 4 9 -7 18 -14 21 -14 7z"/>
<path d="M2950 1895 c8 -11 15 -21 16 -23 1 -2 5 5 8 15 4 9 4 14 0 10 -4 -4
-14 -1 -23 6 -14 11 -15 10 -1 -8z"/>
<path d="M2421 1884 c0 -11 3 -14 6 -6 3 7 2 16 -1 19 -3 4 -6 -2 -5 -13z"/>
<path d="M2600 1862 c6 -12 8 -28 4 -34 -4 -7 -3 -8 4 -4 16 10 15 18 -4 42
-14 18 -15 18 -4 -4z"/>
<path d="M4119 1863 c-13 -16 -12 -17 4 -4 16 13 21 21 13 21 -2 0 -10 -8 -17
-17z"/>
<path d="M3570 1860 c-9 -6 -10 -10 -3 -10 6 0 15 5 18 10 8 12 4 12 -15 0z"/>
<path d="M2610 1690 c-9 -6 -10 -10 -3 -10 6 0 15 5 18 10 8 12 4 12 -15 0z"/>
<path d="M3416 1658 c3 -5 10 -6 15 -3 13 9 11 12 -6 12 -8 0 -12 -4 -9 -9z"/>
<path d="M3998 1653 c7 -3 16 -2 19 1 4 3 -2 6 -13 5 -11 0 -14 -3 -6 -6z"/>
</g>
</svg>
